<mxfile host="app.diagrams.net" modified="2024-06-05T09:21:28.359Z" agent="Mozilla/5.0 (Windows NT 10.0; Win64; x64) AppleWebKit/537.36 (KHTML, like Gecko) Chrome/125.0.0.0 Safari/537.36 Edg/125.0.0.0" etag="b7oWMqsF5O7WegYhg_dI" version="24.4.13" type="device">
  <diagram name="Seite-1" id="3kbpfofDCSqLdcC_0jWb">
    <mxGraphModel dx="1514" dy="857" grid="1" gridSize="10" guides="1" tooltips="1" connect="1" arrows="1" fold="1" page="1" pageScale="1" pageWidth="827" pageHeight="1169" math="0" shadow="0">
      <root>
        <mxCell id="0" />
        <mxCell id="1" parent="0" />
        <mxCell id="shifs2Kozp3Mtdg8H0QK-1" value="&lt;b&gt;cmp&lt;/b&gt; Stundenplan" style="shape=umlFrame;whiteSpace=wrap;html=1;pointerEvents=0;recursiveResize=0;container=1;collapsible=0;width=160;" parent="1" vertex="1">
          <mxGeometry x="20" y="20" width="1190" height="870" as="geometry" />
        </mxCell>
        <mxCell id="shifs2Kozp3Mtdg8H0QK-203" value="" style="endArrow=none;html=1;rounded=0;align=center;verticalAlign=top;endFill=0;labelBackgroundColor=none;endSize=2;exitX=0.5;exitY=1;exitDx=0;exitDy=0;" parent="shifs2Kozp3Mtdg8H0QK-1" target="shifs2Kozp3Mtdg8H0QK-204" edge="1" source="shifs2Kozp3Mtdg8H0QK-115">
          <mxGeometry relative="1" as="geometry">
            <mxPoint x="1400" y="846.5" as="sourcePoint" />
          </mxGeometry>
        </mxCell>
        <mxCell id="shifs2Kozp3Mtdg8H0QK-264" value="" style="group" parent="shifs2Kozp3Mtdg8H0QK-1" vertex="1" connectable="0">
          <mxGeometry x="810" y="811.5" width="351" height="40" as="geometry" />
        </mxCell>
        <mxCell id="shifs2Kozp3Mtdg8H0QK-108" value="" style="fontStyle=1;align=center;verticalAlign=top;childLayout=stackLayout;horizontal=1;horizontalStack=0;resizeParent=1;resizeParentMax=0;resizeLast=0;marginBottom=0;" parent="shifs2Kozp3Mtdg8H0QK-264" vertex="1">
          <mxGeometry x="211" width="140" height="40" as="geometry" />
        </mxCell>
        <mxCell id="shifs2Kozp3Mtdg8H0QK-109" value="&amp;lt;&amp;lt;component&amp;gt;&amp;gt;&lt;div&gt;AiCommunication&lt;/div&gt;" style="html=1;align=left;spacingLeft=4;verticalAlign=top;strokeColor=none;fillColor=none;whiteSpace=wrap;" parent="shifs2Kozp3Mtdg8H0QK-108" vertex="1">
          <mxGeometry width="140" height="40" as="geometry" />
        </mxCell>
        <mxCell id="shifs2Kozp3Mtdg8H0QK-110" value="" style="shape=module;jettyWidth=10;jettyHeight=4;" parent="shifs2Kozp3Mtdg8H0QK-109" vertex="1">
          <mxGeometry x="1" width="16" height="20" relative="1" as="geometry">
            <mxPoint x="-25" y="9" as="offset" />
          </mxGeometry>
        </mxCell>
        <mxCell id="shifs2Kozp3Mtdg8H0QK-105" value="" style="fontStyle=1;align=center;verticalAlign=top;childLayout=stackLayout;horizontal=1;horizontalStack=0;resizeParent=1;resizeParentMax=0;resizeLast=0;marginBottom=0;" parent="shifs2Kozp3Mtdg8H0QK-264" vertex="1">
          <mxGeometry width="140" height="40" as="geometry" />
        </mxCell>
        <mxCell id="shifs2Kozp3Mtdg8H0QK-106" value="&amp;lt;&amp;lt;component&amp;gt;&amp;gt;&lt;div&gt;AiSerializer&lt;/div&gt;" style="html=1;align=left;spacingLeft=4;verticalAlign=top;strokeColor=none;fillColor=none;whiteSpace=wrap;" parent="shifs2Kozp3Mtdg8H0QK-105" vertex="1">
          <mxGeometry width="140" height="40" as="geometry" />
        </mxCell>
        <mxCell id="shifs2Kozp3Mtdg8H0QK-107" value="" style="shape=module;jettyWidth=10;jettyHeight=4;" parent="shifs2Kozp3Mtdg8H0QK-106" vertex="1">
          <mxGeometry x="1" width="16" height="20" relative="1" as="geometry">
            <mxPoint x="-25" y="9" as="offset" />
          </mxGeometry>
        </mxCell>
        <mxCell id="shifs2Kozp3Mtdg8H0QK-193" value="" style="endArrow=none;html=1;rounded=0;align=center;verticalAlign=top;endFill=0;labelBackgroundColor=none;endSize=2;exitX=0;exitY=0.5;exitDx=0;exitDy=0;" parent="shifs2Kozp3Mtdg8H0QK-264" source="shifs2Kozp3Mtdg8H0QK-109" target="shifs2Kozp3Mtdg8H0QK-194" edge="1">
          <mxGeometry relative="1" as="geometry">
            <mxPoint x="410" y="576.5" as="sourcePoint" />
          </mxGeometry>
        </mxCell>
        <mxCell id="shifs2Kozp3Mtdg8H0QK-194" value="" style="shape=requiredInterface;html=1;fontSize=11;align=center;fillColor=none;points=[];aspect=fixed;resizable=0;verticalAlign=bottom;labelPosition=center;verticalLabelPosition=top;flipH=1;rotation=-180;" parent="shifs2Kozp3Mtdg8H0QK-264" vertex="1">
          <mxGeometry x="170" y="15" width="5" height="10" as="geometry" />
        </mxCell>
        <mxCell id="shifs2Kozp3Mtdg8H0QK-238" value="" style="endArrow=none;html=1;rounded=0;align=center;verticalAlign=top;endFill=0;labelBackgroundColor=none;endSize=2;exitX=1;exitY=0.5;exitDx=0;exitDy=0;" parent="shifs2Kozp3Mtdg8H0QK-264" source="shifs2Kozp3Mtdg8H0QK-106" target="shifs2Kozp3Mtdg8H0QK-239" edge="1">
          <mxGeometry relative="1" as="geometry">
            <mxPoint x="373.5" y="210" as="sourcePoint" />
          </mxGeometry>
        </mxCell>
        <mxCell id="shifs2Kozp3Mtdg8H0QK-239" value="" style="ellipse;html=1;fontSize=11;align=center;fillColor=none;points=[];aspect=fixed;resizable=0;verticalAlign=bottom;labelPosition=center;verticalLabelPosition=top;flipH=1;" parent="shifs2Kozp3Mtdg8H0QK-264" vertex="1">
          <mxGeometry x="160" y="16" width="8" height="8" as="geometry" />
        </mxCell>
        <mxCell id="shifs2Kozp3Mtdg8H0QK-303" value="" style="group" parent="shifs2Kozp3Mtdg8H0QK-1" vertex="1" connectable="0">
          <mxGeometry x="850" y="37.5" width="300" height="360.5" as="geometry" />
        </mxCell>
        <mxCell id="shifs2Kozp3Mtdg8H0QK-266" value="" style="group" parent="shifs2Kozp3Mtdg8H0QK-303" vertex="1" connectable="0">
          <mxGeometry x="40" width="260" height="360.5" as="geometry" />
        </mxCell>
        <mxCell id="shifs2Kozp3Mtdg8H0QK-262" value="" style="group" parent="shifs2Kozp3Mtdg8H0QK-266" vertex="1" connectable="0">
          <mxGeometry y="40.5" width="260" height="320" as="geometry" />
        </mxCell>
        <mxCell id="shifs2Kozp3Mtdg8H0QK-23" value="" style="fontStyle=1;align=center;verticalAlign=top;childLayout=stackLayout;horizontal=1;horizontalStack=0;resizeParent=1;resizeParentMax=0;resizeLast=0;marginBottom=0;" parent="shifs2Kozp3Mtdg8H0QK-262" vertex="1">
          <mxGeometry y="190" width="190" height="40" as="geometry" />
        </mxCell>
        <mxCell id="shifs2Kozp3Mtdg8H0QK-24" value="&amp;lt;&amp;lt;component&amp;gt;&amp;gt;&lt;div&gt;Attendancelistmanagement&lt;/div&gt;" style="html=1;align=left;spacingLeft=4;verticalAlign=top;strokeColor=none;fillColor=none;whiteSpace=wrap;" parent="shifs2Kozp3Mtdg8H0QK-23" vertex="1">
          <mxGeometry width="190" height="40" as="geometry" />
        </mxCell>
        <mxCell id="shifs2Kozp3Mtdg8H0QK-25" value="" style="shape=module;jettyWidth=10;jettyHeight=4;" parent="shifs2Kozp3Mtdg8H0QK-24" vertex="1">
          <mxGeometry x="1" width="16" height="20" relative="1" as="geometry">
            <mxPoint x="-25" y="9" as="offset" />
          </mxGeometry>
        </mxCell>
        <mxCell id="shifs2Kozp3Mtdg8H0QK-50" value="" style="fontStyle=1;align=center;verticalAlign=top;childLayout=stackLayout;horizontal=1;horizontalStack=0;resizeParent=1;resizeParentMax=0;resizeLast=0;marginBottom=0;" parent="shifs2Kozp3Mtdg8H0QK-262" vertex="1">
          <mxGeometry y="60" width="210" height="40" as="geometry" />
        </mxCell>
        <mxCell id="shifs2Kozp3Mtdg8H0QK-51" value="&amp;lt;&amp;lt;component&amp;gt;&amp;gt;&lt;div&gt;AttendancelistmanagementGui&lt;br&gt;&lt;/div&gt;" style="html=1;align=left;spacingLeft=4;verticalAlign=top;strokeColor=none;fillColor=none;whiteSpace=wrap;" parent="shifs2Kozp3Mtdg8H0QK-50" vertex="1">
          <mxGeometry width="210" height="40" as="geometry" />
        </mxCell>
        <mxCell id="shifs2Kozp3Mtdg8H0QK-52" value="" style="shape=module;jettyWidth=10;jettyHeight=4;" parent="shifs2Kozp3Mtdg8H0QK-51" vertex="1">
          <mxGeometry x="1" width="16" height="20" relative="1" as="geometry">
            <mxPoint x="-25" y="9" as="offset" />
          </mxGeometry>
        </mxCell>
        <mxCell id="shifs2Kozp3Mtdg8H0QK-135" value="" style="fontStyle=1;align=center;verticalAlign=top;childLayout=stackLayout;horizontal=1;horizontalStack=0;resizeParent=1;resizeParentMax=0;resizeLast=0;marginBottom=0;" parent="shifs2Kozp3Mtdg8H0QK-262" vertex="1">
          <mxGeometry width="260" height="40" as="geometry" />
        </mxCell>
        <mxCell id="shifs2Kozp3Mtdg8H0QK-136" value="&amp;lt;&amp;lt;component&amp;gt;&amp;gt;&lt;div&gt;AttendancelistmanagementContactpoints&lt;br&gt;&lt;/div&gt;" style="html=1;align=left;spacingLeft=4;verticalAlign=top;strokeColor=none;fillColor=none;whiteSpace=wrap;" parent="shifs2Kozp3Mtdg8H0QK-135" vertex="1">
          <mxGeometry width="260" height="40" as="geometry" />
        </mxCell>
        <mxCell id="shifs2Kozp3Mtdg8H0QK-137" value="" style="shape=module;jettyWidth=10;jettyHeight=4;" parent="shifs2Kozp3Mtdg8H0QK-136" vertex="1">
          <mxGeometry x="1" width="16" height="20" relative="1" as="geometry">
            <mxPoint x="-25" y="9" as="offset" />
          </mxGeometry>
        </mxCell>
        <mxCell id="shifs2Kozp3Mtdg8H0QK-114" value="" style="fontStyle=1;align=center;verticalAlign=top;childLayout=stackLayout;horizontal=1;horizontalStack=0;resizeParent=1;resizeParentMax=0;resizeLast=0;marginBottom=0;" parent="shifs2Kozp3Mtdg8H0QK-262" vertex="1">
          <mxGeometry y="280" width="190" height="40" as="geometry" />
        </mxCell>
        <mxCell id="shifs2Kozp3Mtdg8H0QK-115" value="&amp;lt;&amp;lt;component&amp;gt;&amp;gt;&lt;br&gt;&lt;div&gt;&lt;span style=&quot;background-color: initial;&quot;&gt;Attendancelist&lt;/span&gt;Persistence&lt;br&gt;&lt;/div&gt;" style="html=1;align=left;spacingLeft=4;verticalAlign=top;strokeColor=none;fillColor=none;whiteSpace=wrap;" parent="shifs2Kozp3Mtdg8H0QK-114" vertex="1">
          <mxGeometry width="190" height="40" as="geometry" />
        </mxCell>
        <mxCell id="shifs2Kozp3Mtdg8H0QK-116" value="" style="shape=module;jettyWidth=10;jettyHeight=4;" parent="shifs2Kozp3Mtdg8H0QK-115" vertex="1">
          <mxGeometry x="1" width="16" height="20" relative="1" as="geometry">
            <mxPoint x="-25" y="9" as="offset" />
          </mxGeometry>
        </mxCell>
        <mxCell id="shifs2Kozp3Mtdg8H0QK-181" value="" style="endArrow=none;html=1;rounded=0;align=center;verticalAlign=top;endFill=0;labelBackgroundColor=none;endSize=2;exitX=1;exitY=1;exitDx=0;exitDy=0;" parent="shifs2Kozp3Mtdg8H0QK-262" source="shifs2Kozp3Mtdg8H0QK-136" target="shifs2Kozp3Mtdg8H0QK-182" edge="1">
          <mxGeometry relative="1" as="geometry">
            <mxPoint x="435" y="180" as="sourcePoint" />
            <Array as="points">
              <mxPoint x="260" y="130" />
              <mxPoint x="95" y="130" />
            </Array>
          </mxGeometry>
        </mxCell>
        <mxCell id="shifs2Kozp3Mtdg8H0QK-182" value="" style="shape=requiredInterface;html=1;fontSize=11;align=center;fillColor=none;points=[];aspect=fixed;resizable=0;verticalAlign=bottom;labelPosition=center;verticalLabelPosition=top;flipH=1;rotation=90;" parent="shifs2Kozp3Mtdg8H0QK-262" vertex="1">
          <mxGeometry x="92.5" y="140" width="5" height="10" as="geometry" />
        </mxCell>
        <mxCell id="shifs2Kozp3Mtdg8H0QK-183" value="" style="endArrow=none;html=1;rounded=0;align=center;verticalAlign=top;endFill=0;labelBackgroundColor=none;endSize=2;exitX=1;exitY=0.5;exitDx=0;exitDy=0;" parent="shifs2Kozp3Mtdg8H0QK-262" source="shifs2Kozp3Mtdg8H0QK-51" edge="1">
          <mxGeometry relative="1" as="geometry">
            <mxPoint x="445" y="190" as="sourcePoint" />
            <mxPoint x="260" y="80" as="targetPoint" />
          </mxGeometry>
        </mxCell>
        <mxCell id="shifs2Kozp3Mtdg8H0QK-185" value="" style="endArrow=none;html=1;rounded=0;align=center;verticalAlign=top;endFill=0;labelBackgroundColor=none;endSize=2;exitX=0.5;exitY=1;exitDx=0;exitDy=0;" parent="shifs2Kozp3Mtdg8H0QK-262" source="shifs2Kozp3Mtdg8H0QK-24" target="shifs2Kozp3Mtdg8H0QK-186" edge="1">
          <mxGeometry relative="1" as="geometry">
            <mxPoint x="455" y="200" as="sourcePoint" />
          </mxGeometry>
        </mxCell>
        <mxCell id="shifs2Kozp3Mtdg8H0QK-186" value="" style="shape=requiredInterface;html=1;fontSize=11;align=center;fillColor=none;points=[];aspect=fixed;resizable=0;verticalAlign=bottom;labelPosition=center;verticalLabelPosition=top;flipH=1;rotation=90;" parent="shifs2Kozp3Mtdg8H0QK-262" vertex="1">
          <mxGeometry x="92.5" y="250" width="5" height="10" as="geometry" />
        </mxCell>
        <mxCell id="shifs2Kozp3Mtdg8H0QK-230" value="" style="endArrow=none;html=1;rounded=0;align=center;verticalAlign=top;endFill=0;labelBackgroundColor=none;endSize=2;exitX=0.5;exitY=0;exitDx=0;exitDy=0;" parent="shifs2Kozp3Mtdg8H0QK-262" source="shifs2Kozp3Mtdg8H0QK-24" target="shifs2Kozp3Mtdg8H0QK-231" edge="1">
          <mxGeometry relative="1" as="geometry">
            <mxPoint x="413.5" y="50" as="sourcePoint" />
          </mxGeometry>
        </mxCell>
        <mxCell id="shifs2Kozp3Mtdg8H0QK-231" value="" style="ellipse;html=1;fontSize=11;align=center;fillColor=none;points=[];aspect=fixed;resizable=0;verticalAlign=bottom;labelPosition=center;verticalLabelPosition=top;flipH=1;" parent="shifs2Kozp3Mtdg8H0QK-262" vertex="1">
          <mxGeometry x="91" y="150" width="8" height="8" as="geometry" />
        </mxCell>
        <mxCell id="shifs2Kozp3Mtdg8H0QK-232" value="" style="endArrow=none;html=1;rounded=0;align=center;verticalAlign=top;endFill=0;labelBackgroundColor=none;endSize=2;exitX=0.5;exitY=0;exitDx=0;exitDy=0;" parent="shifs2Kozp3Mtdg8H0QK-262" source="shifs2Kozp3Mtdg8H0QK-115" target="shifs2Kozp3Mtdg8H0QK-233" edge="1">
          <mxGeometry relative="1" as="geometry">
            <mxPoint x="423.5" y="60" as="sourcePoint" />
          </mxGeometry>
        </mxCell>
        <mxCell id="shifs2Kozp3Mtdg8H0QK-233" value="" style="ellipse;html=1;fontSize=11;align=center;fillColor=none;points=[];aspect=fixed;resizable=0;verticalAlign=bottom;labelPosition=center;verticalLabelPosition=top;flipH=1;" parent="shifs2Kozp3Mtdg8H0QK-262" vertex="1">
          <mxGeometry x="91" y="260" width="8" height="8" as="geometry" />
        </mxCell>
        <mxCell id="shifs2Kozp3Mtdg8H0QK-304" value="" style="group" parent="shifs2Kozp3Mtdg8H0QK-1" vertex="1" connectable="0">
          <mxGeometry x="30" y="50" width="270" height="414" as="geometry" />
        </mxCell>
        <mxCell id="shifs2Kozp3Mtdg8H0QK-255" value="" style="group" parent="shifs2Kozp3Mtdg8H0QK-304" vertex="1" connectable="0">
          <mxGeometry y="34" width="270" height="380" as="geometry" />
        </mxCell>
        <mxCell id="shifs2Kozp3Mtdg8H0QK-77" value="" style="fontStyle=1;align=center;verticalAlign=top;childLayout=stackLayout;horizontal=1;horizontalStack=0;resizeParent=1;resizeParentMax=0;resizeLast=0;marginBottom=0;" parent="shifs2Kozp3Mtdg8H0QK-255" vertex="1">
          <mxGeometry x="40" y="60" width="190" height="40" as="geometry" />
        </mxCell>
        <mxCell id="shifs2Kozp3Mtdg8H0QK-78" value="&amp;lt;&amp;lt;component&amp;gt;&amp;gt;&lt;div&gt;TerminTemplateCreationGui&lt;/div&gt;" style="html=1;align=left;spacingLeft=4;verticalAlign=top;strokeColor=none;fillColor=none;whiteSpace=wrap;" parent="shifs2Kozp3Mtdg8H0QK-77" vertex="1">
          <mxGeometry width="190" height="40" as="geometry" />
        </mxCell>
        <mxCell id="shifs2Kozp3Mtdg8H0QK-79" value="" style="shape=module;jettyWidth=10;jettyHeight=4;" parent="shifs2Kozp3Mtdg8H0QK-78" vertex="1">
          <mxGeometry x="1" width="16" height="20" relative="1" as="geometry">
            <mxPoint x="-25" y="9" as="offset" />
          </mxGeometry>
        </mxCell>
        <mxCell id="shifs2Kozp3Mtdg8H0QK-74" value="" style="fontStyle=1;align=center;verticalAlign=top;childLayout=stackLayout;horizontal=1;horizontalStack=0;resizeParent=1;resizeParentMax=0;resizeLast=0;marginBottom=0;" parent="shifs2Kozp3Mtdg8H0QK-255" vertex="1">
          <mxGeometry x="40" y="250.5" width="190" height="40" as="geometry" />
        </mxCell>
        <mxCell id="shifs2Kozp3Mtdg8H0QK-75" value="&amp;lt;&amp;lt;component&amp;gt;&amp;gt;&lt;div&gt;TerminTemplatemanagement&lt;/div&gt;" style="html=1;align=left;spacingLeft=4;verticalAlign=top;strokeColor=none;fillColor=none;whiteSpace=wrap;" parent="shifs2Kozp3Mtdg8H0QK-74" vertex="1">
          <mxGeometry width="190" height="40" as="geometry" />
        </mxCell>
        <mxCell id="shifs2Kozp3Mtdg8H0QK-76" value="" style="shape=module;jettyWidth=10;jettyHeight=4;" parent="shifs2Kozp3Mtdg8H0QK-75" vertex="1">
          <mxGeometry x="1" width="16" height="20" relative="1" as="geometry">
            <mxPoint x="-25" y="9" as="offset" />
          </mxGeometry>
        </mxCell>
        <mxCell id="shifs2Kozp3Mtdg8H0QK-71" value="" style="fontStyle=1;align=center;verticalAlign=top;childLayout=stackLayout;horizontal=1;horizontalStack=0;resizeParent=1;resizeParentMax=0;resizeLast=0;marginBottom=0;" parent="shifs2Kozp3Mtdg8H0QK-255" vertex="1">
          <mxGeometry x="40" y="120" width="190" height="40" as="geometry" />
        </mxCell>
        <mxCell id="shifs2Kozp3Mtdg8H0QK-72" value="&amp;lt;&amp;lt;component&amp;gt;&amp;gt;&lt;div&gt;TerminTemplateUpdatingGui&lt;/div&gt;" style="html=1;align=left;spacingLeft=4;verticalAlign=top;strokeColor=none;fillColor=none;whiteSpace=wrap;" parent="shifs2Kozp3Mtdg8H0QK-71" vertex="1">
          <mxGeometry width="190" height="40" as="geometry" />
        </mxCell>
        <mxCell id="shifs2Kozp3Mtdg8H0QK-73" value="" style="shape=module;jettyWidth=10;jettyHeight=4;" parent="shifs2Kozp3Mtdg8H0QK-72" vertex="1">
          <mxGeometry x="1" width="16" height="20" relative="1" as="geometry">
            <mxPoint x="-25" y="9" as="offset" />
          </mxGeometry>
        </mxCell>
        <mxCell id="shifs2Kozp3Mtdg8H0QK-68" value="" style="fontStyle=1;align=center;verticalAlign=top;childLayout=stackLayout;horizontal=1;horizontalStack=0;resizeParent=1;resizeParentMax=0;resizeLast=0;marginBottom=0;" parent="shifs2Kozp3Mtdg8H0QK-255" vertex="1">
          <mxGeometry width="270" height="40" as="geometry" />
        </mxCell>
        <mxCell id="shifs2Kozp3Mtdg8H0QK-69" value="&amp;lt;&amp;lt;component&amp;gt;&amp;gt;&lt;div&gt;TerminTemplatemanagementContactpoints&lt;/div&gt;" style="html=1;align=left;spacingLeft=4;verticalAlign=top;strokeColor=none;fillColor=none;whiteSpace=wrap;" parent="shifs2Kozp3Mtdg8H0QK-68" vertex="1">
          <mxGeometry width="270" height="40" as="geometry" />
        </mxCell>
        <mxCell id="shifs2Kozp3Mtdg8H0QK-70" value="" style="shape=module;jettyWidth=10;jettyHeight=4;" parent="shifs2Kozp3Mtdg8H0QK-69" vertex="1">
          <mxGeometry x="1" width="16" height="20" relative="1" as="geometry">
            <mxPoint x="-25" y="9" as="offset" />
          </mxGeometry>
        </mxCell>
        <mxCell id="shifs2Kozp3Mtdg8H0QK-117" value="" style="fontStyle=1;align=center;verticalAlign=top;childLayout=stackLayout;horizontal=1;horizontalStack=0;resizeParent=1;resizeParentMax=0;resizeLast=0;marginBottom=0;" parent="shifs2Kozp3Mtdg8H0QK-255" vertex="1">
          <mxGeometry x="40" y="340" width="190" height="40" as="geometry" />
        </mxCell>
        <mxCell id="shifs2Kozp3Mtdg8H0QK-118" value="&amp;lt;&amp;lt;component&amp;gt;&amp;gt;&lt;div&gt;TerminTemplatePersistence&lt;/div&gt;" style="html=1;align=left;spacingLeft=4;verticalAlign=top;strokeColor=none;fillColor=none;whiteSpace=wrap;" parent="shifs2Kozp3Mtdg8H0QK-117" vertex="1">
          <mxGeometry width="190" height="40" as="geometry" />
        </mxCell>
        <mxCell id="shifs2Kozp3Mtdg8H0QK-119" value="" style="shape=module;jettyWidth=10;jettyHeight=4;" parent="shifs2Kozp3Mtdg8H0QK-118" vertex="1">
          <mxGeometry x="1" width="16" height="20" relative="1" as="geometry">
            <mxPoint x="-25" y="9" as="offset" />
          </mxGeometry>
        </mxCell>
        <mxCell id="shifs2Kozp3Mtdg8H0QK-159" value="" style="endArrow=none;html=1;rounded=0;align=center;verticalAlign=top;endFill=0;labelBackgroundColor=none;endSize=2;exitX=0;exitY=1;exitDx=0;exitDy=0;" parent="shifs2Kozp3Mtdg8H0QK-255" source="shifs2Kozp3Mtdg8H0QK-69" target="shifs2Kozp3Mtdg8H0QK-160" edge="1">
          <mxGeometry relative="1" as="geometry">
            <mxPoint x="45" y="390" as="sourcePoint" />
            <Array as="points">
              <mxPoint y="190" />
              <mxPoint x="89" y="190" />
            </Array>
          </mxGeometry>
        </mxCell>
        <mxCell id="shifs2Kozp3Mtdg8H0QK-160" value="" style="shape=requiredInterface;html=1;fontSize=11;align=center;fillColor=none;points=[];aspect=fixed;resizable=0;verticalAlign=bottom;labelPosition=center;verticalLabelPosition=top;flipH=1;rotation=90;" parent="shifs2Kozp3Mtdg8H0QK-255" vertex="1">
          <mxGeometry x="86" y="200" width="5" height="10" as="geometry" />
        </mxCell>
        <mxCell id="shifs2Kozp3Mtdg8H0QK-161" value="" style="endArrow=none;html=1;rounded=0;align=center;verticalAlign=top;endFill=0;labelBackgroundColor=none;endSize=2;exitX=1;exitY=1;exitDx=0;exitDy=0;" parent="shifs2Kozp3Mtdg8H0QK-255" source="shifs2Kozp3Mtdg8H0QK-69" target="shifs2Kozp3Mtdg8H0QK-162" edge="1">
          <mxGeometry relative="1" as="geometry">
            <mxPoint x="55" y="400" as="sourcePoint" />
            <Array as="points">
              <mxPoint x="270" y="190" />
              <mxPoint x="182" y="190" />
            </Array>
          </mxGeometry>
        </mxCell>
        <mxCell id="shifs2Kozp3Mtdg8H0QK-162" value="" style="shape=requiredInterface;html=1;fontSize=11;align=center;fillColor=none;points=[];aspect=fixed;resizable=0;verticalAlign=bottom;labelPosition=center;verticalLabelPosition=top;flipH=1;rotation=90;" parent="shifs2Kozp3Mtdg8H0QK-255" vertex="1">
          <mxGeometry x="179.5" y="200" width="5" height="10" as="geometry" />
        </mxCell>
        <mxCell id="shifs2Kozp3Mtdg8H0QK-163" value="" style="endArrow=none;html=1;rounded=0;align=center;verticalAlign=top;endFill=0;labelBackgroundColor=none;endSize=2;exitX=0;exitY=0.5;exitDx=0;exitDy=0;" parent="shifs2Kozp3Mtdg8H0QK-255" source="shifs2Kozp3Mtdg8H0QK-78" edge="1">
          <mxGeometry relative="1" as="geometry">
            <mxPoint x="65" y="410" as="sourcePoint" />
            <mxPoint y="80" as="targetPoint" />
          </mxGeometry>
        </mxCell>
        <mxCell id="shifs2Kozp3Mtdg8H0QK-165" value="" style="endArrow=none;html=1;rounded=0;align=center;verticalAlign=top;endFill=0;labelBackgroundColor=none;endSize=2;exitX=1;exitY=0.5;exitDx=0;exitDy=0;" parent="shifs2Kozp3Mtdg8H0QK-255" source="shifs2Kozp3Mtdg8H0QK-72" edge="1">
          <mxGeometry relative="1" as="geometry">
            <mxPoint x="75" y="420" as="sourcePoint" />
            <mxPoint x="270" y="140" as="targetPoint" />
          </mxGeometry>
        </mxCell>
        <mxCell id="shifs2Kozp3Mtdg8H0QK-167" value="" style="endArrow=none;html=1;rounded=0;align=center;verticalAlign=top;endFill=0;labelBackgroundColor=none;endSize=2;exitX=0.5;exitY=1;exitDx=0;exitDy=0;" parent="shifs2Kozp3Mtdg8H0QK-255" source="shifs2Kozp3Mtdg8H0QK-75" target="shifs2Kozp3Mtdg8H0QK-168" edge="1">
          <mxGeometry relative="1" as="geometry">
            <mxPoint x="85" y="430" as="sourcePoint" />
          </mxGeometry>
        </mxCell>
        <mxCell id="shifs2Kozp3Mtdg8H0QK-168" value="" style="shape=requiredInterface;html=1;fontSize=11;align=center;fillColor=none;points=[];aspect=fixed;resizable=0;verticalAlign=bottom;labelPosition=center;verticalLabelPosition=top;flipH=1;rotation=90;" parent="shifs2Kozp3Mtdg8H0QK-255" vertex="1">
          <mxGeometry x="133" y="310" width="5" height="10" as="geometry" />
        </mxCell>
        <mxCell id="shifs2Kozp3Mtdg8H0QK-216" value="" style="endArrow=none;html=1;rounded=0;align=center;verticalAlign=top;endFill=0;labelBackgroundColor=none;endSize=2;exitX=0.25;exitY=0;exitDx=0;exitDy=0;" parent="shifs2Kozp3Mtdg8H0QK-255" source="shifs2Kozp3Mtdg8H0QK-75" target="shifs2Kozp3Mtdg8H0QK-217" edge="1">
          <mxGeometry relative="1" as="geometry">
            <mxPoint x="34" y="675" as="sourcePoint" />
          </mxGeometry>
        </mxCell>
        <mxCell id="shifs2Kozp3Mtdg8H0QK-217" value="" style="ellipse;html=1;fontSize=11;align=center;fillColor=none;points=[];aspect=fixed;resizable=0;verticalAlign=bottom;labelPosition=center;verticalLabelPosition=top;flipH=1;" parent="shifs2Kozp3Mtdg8H0QK-255" vertex="1">
          <mxGeometry x="84.5" y="210" width="8" height="8" as="geometry" />
        </mxCell>
        <mxCell id="shifs2Kozp3Mtdg8H0QK-218" value="" style="endArrow=none;html=1;rounded=0;align=center;verticalAlign=top;endFill=0;labelBackgroundColor=none;endSize=2;exitX=0.75;exitY=0;exitDx=0;exitDy=0;" parent="shifs2Kozp3Mtdg8H0QK-255" source="shifs2Kozp3Mtdg8H0QK-75" target="shifs2Kozp3Mtdg8H0QK-219" edge="1">
          <mxGeometry relative="1" as="geometry">
            <mxPoint x="44" y="685" as="sourcePoint" />
          </mxGeometry>
        </mxCell>
        <mxCell id="shifs2Kozp3Mtdg8H0QK-219" value="" style="ellipse;html=1;fontSize=11;align=center;fillColor=none;points=[];aspect=fixed;resizable=0;verticalAlign=bottom;labelPosition=center;verticalLabelPosition=top;flipH=1;" parent="shifs2Kozp3Mtdg8H0QK-255" vertex="1">
          <mxGeometry x="178" y="210" width="8" height="8" as="geometry" />
        </mxCell>
        <mxCell id="shifs2Kozp3Mtdg8H0QK-220" value="" style="endArrow=none;html=1;rounded=0;align=center;verticalAlign=top;endFill=0;labelBackgroundColor=none;endSize=2;exitX=0.5;exitY=0;exitDx=0;exitDy=0;" parent="shifs2Kozp3Mtdg8H0QK-255" source="shifs2Kozp3Mtdg8H0QK-118" target="shifs2Kozp3Mtdg8H0QK-221" edge="1">
          <mxGeometry relative="1" as="geometry">
            <mxPoint x="54" y="695" as="sourcePoint" />
          </mxGeometry>
        </mxCell>
        <mxCell id="shifs2Kozp3Mtdg8H0QK-221" value="" style="ellipse;html=1;fontSize=11;align=center;fillColor=none;points=[];aspect=fixed;resizable=0;verticalAlign=bottom;labelPosition=center;verticalLabelPosition=top;flipH=1;" parent="shifs2Kozp3Mtdg8H0QK-255" vertex="1">
          <mxGeometry x="131" y="320" width="8" height="8" as="geometry" />
        </mxCell>
        <mxCell id="shifs2Kozp3Mtdg8H0QK-309" value="" style="group" parent="shifs2Kozp3Mtdg8H0QK-1" vertex="1" connectable="0">
          <mxGeometry x="890" y="420" width="180" height="80" as="geometry" />
        </mxCell>
        <mxCell id="shifs2Kozp3Mtdg8H0QK-86" value="" style="fontStyle=1;align=center;verticalAlign=top;childLayout=stackLayout;horizontal=1;horizontalStack=0;resizeParent=1;resizeParentMax=0;resizeLast=0;marginBottom=0;" parent="shifs2Kozp3Mtdg8H0QK-309" vertex="1">
          <mxGeometry y="40" width="180" height="40" as="geometry" />
        </mxCell>
        <mxCell id="shifs2Kozp3Mtdg8H0QK-87" value="&amp;lt;&amp;lt;component&amp;gt;&amp;gt;&lt;div&gt;MongoDBCommunication&lt;/div&gt;" style="html=1;align=left;spacingLeft=4;verticalAlign=top;strokeColor=none;fillColor=none;whiteSpace=wrap;" parent="shifs2Kozp3Mtdg8H0QK-86" vertex="1">
          <mxGeometry width="180" height="40" as="geometry" />
        </mxCell>
        <mxCell id="shifs2Kozp3Mtdg8H0QK-88" value="" style="shape=module;jettyWidth=10;jettyHeight=4;" parent="shifs2Kozp3Mtdg8H0QK-87" vertex="1">
          <mxGeometry x="1" width="16" height="20" relative="1" as="geometry">
            <mxPoint x="-25" y="9" as="offset" />
          </mxGeometry>
        </mxCell>
        <mxCell id="shifs2Kozp3Mtdg8H0QK-281" value="" style="ellipse;html=1;fontSize=11;align=center;fillColor=none;points=[];aspect=fixed;resizable=0;verticalAlign=bottom;labelPosition=center;verticalLabelPosition=top;flipH=1;" parent="shifs2Kozp3Mtdg8H0QK-309" vertex="1">
          <mxGeometry x="86" width="8" height="8" as="geometry" />
        </mxCell>
        <mxCell id="shifs2Kozp3Mtdg8H0QK-280" value="" style="endArrow=none;html=1;rounded=0;align=center;verticalAlign=top;endFill=0;labelBackgroundColor=none;endSize=2;exitX=0.5;exitY=0;exitDx=0;exitDy=0;" parent="shifs2Kozp3Mtdg8H0QK-309" source="shifs2Kozp3Mtdg8H0QK-87" target="shifs2Kozp3Mtdg8H0QK-281" edge="1">
          <mxGeometry relative="1" as="geometry">
            <mxPoint x="383.5" y="470" as="sourcePoint" />
          </mxGeometry>
        </mxCell>
        <mxCell id="shifs2Kozp3Mtdg8H0QK-204" value="" style="shape=requiredInterface;html=1;fontSize=11;align=center;fillColor=none;points=[];aspect=fixed;resizable=0;verticalAlign=bottom;labelPosition=center;verticalLabelPosition=top;flipH=1;rotation=90;" parent="shifs2Kozp3Mtdg8H0QK-309" vertex="1">
          <mxGeometry x="87.5" y="-10" width="5" height="10" as="geometry" />
        </mxCell>
        <mxCell id="shifs2Kozp3Mtdg8H0QK-310" value="" style="group" parent="shifs2Kozp3Mtdg8H0QK-1" vertex="1" connectable="0">
          <mxGeometry x="600" y="33" width="260" height="361" as="geometry" />
        </mxCell>
        <mxCell id="shifs2Kozp3Mtdg8H0QK-265" value="" style="group" parent="shifs2Kozp3Mtdg8H0QK-310" vertex="1" connectable="0">
          <mxGeometry x="20" y="4" width="220" height="361" as="geometry" />
        </mxCell>
        <mxCell id="shifs2Kozp3Mtdg8H0QK-261" value="" style="group" parent="shifs2Kozp3Mtdg8H0QK-265" vertex="1" connectable="0">
          <mxGeometry y="40" width="220" height="321" as="geometry" />
        </mxCell>
        <mxCell id="shifs2Kozp3Mtdg8H0QK-14" value="" style="fontStyle=1;align=center;verticalAlign=top;childLayout=stackLayout;horizontal=1;horizontalStack=0;resizeParent=1;resizeParentMax=0;resizeLast=0;marginBottom=0;" parent="shifs2Kozp3Mtdg8H0QK-261" vertex="1">
          <mxGeometry y="190.5" width="140" height="40" as="geometry" />
        </mxCell>
        <mxCell id="shifs2Kozp3Mtdg8H0QK-15" value="&amp;lt;&amp;lt;component&amp;gt;&amp;gt;&lt;div&gt;Terminmanagement&lt;/div&gt;" style="html=1;align=left;spacingLeft=4;verticalAlign=top;strokeColor=none;fillColor=none;whiteSpace=wrap;" parent="shifs2Kozp3Mtdg8H0QK-14" vertex="1">
          <mxGeometry width="140" height="40" as="geometry" />
        </mxCell>
        <mxCell id="shifs2Kozp3Mtdg8H0QK-16" value="" style="shape=module;jettyWidth=10;jettyHeight=4;" parent="shifs2Kozp3Mtdg8H0QK-15" vertex="1">
          <mxGeometry x="1" width="16" height="20" relative="1" as="geometry">
            <mxPoint x="-25" y="9" as="offset" />
          </mxGeometry>
        </mxCell>
        <mxCell id="shifs2Kozp3Mtdg8H0QK-65" value="" style="fontStyle=1;align=center;verticalAlign=top;childLayout=stackLayout;horizontal=1;horizontalStack=0;resizeParent=1;resizeParentMax=0;resizeLast=0;marginBottom=0;" parent="shifs2Kozp3Mtdg8H0QK-261" vertex="1">
          <mxGeometry width="220" height="40" as="geometry" />
        </mxCell>
        <mxCell id="shifs2Kozp3Mtdg8H0QK-66" value="&amp;lt;&amp;lt;component&amp;gt;&amp;gt;&lt;div&gt;TerminmanagementContactpoints&lt;/div&gt;" style="html=1;align=left;spacingLeft=4;verticalAlign=top;strokeColor=none;fillColor=none;whiteSpace=wrap;" parent="shifs2Kozp3Mtdg8H0QK-65" vertex="1">
          <mxGeometry width="220" height="40" as="geometry" />
        </mxCell>
        <mxCell id="shifs2Kozp3Mtdg8H0QK-67" value="" style="shape=module;jettyWidth=10;jettyHeight=4;" parent="shifs2Kozp3Mtdg8H0QK-66" vertex="1">
          <mxGeometry x="1" width="16" height="20" relative="1" as="geometry">
            <mxPoint x="-25" y="9" as="offset" />
          </mxGeometry>
        </mxCell>
        <mxCell id="shifs2Kozp3Mtdg8H0QK-56" value="" style="fontStyle=1;align=center;verticalAlign=top;childLayout=stackLayout;horizontal=1;horizontalStack=0;resizeParent=1;resizeParentMax=0;resizeLast=0;marginBottom=0;" parent="shifs2Kozp3Mtdg8H0QK-261" vertex="1">
          <mxGeometry y="60.5" width="170" height="40" as="geometry" />
        </mxCell>
        <mxCell id="shifs2Kozp3Mtdg8H0QK-57" value="&amp;lt;&amp;lt;component&amp;gt;&amp;gt;&lt;div&gt;TerminmanagementGui&lt;/div&gt;" style="html=1;align=left;spacingLeft=4;verticalAlign=top;strokeColor=none;fillColor=none;whiteSpace=wrap;" parent="shifs2Kozp3Mtdg8H0QK-56" vertex="1">
          <mxGeometry width="170" height="40" as="geometry" />
        </mxCell>
        <mxCell id="shifs2Kozp3Mtdg8H0QK-58" value="" style="shape=module;jettyWidth=10;jettyHeight=4;" parent="shifs2Kozp3Mtdg8H0QK-57" vertex="1">
          <mxGeometry x="1" width="16" height="20" relative="1" as="geometry">
            <mxPoint x="-25" y="9" as="offset" />
          </mxGeometry>
        </mxCell>
        <mxCell id="shifs2Kozp3Mtdg8H0QK-120" value="" style="fontStyle=1;align=center;verticalAlign=top;childLayout=stackLayout;horizontal=1;horizontalStack=0;resizeParent=1;resizeParentMax=0;resizeLast=0;marginBottom=0;" parent="shifs2Kozp3Mtdg8H0QK-261" vertex="1">
          <mxGeometry y="281" width="140" height="40" as="geometry" />
        </mxCell>
        <mxCell id="shifs2Kozp3Mtdg8H0QK-121" value="&amp;lt;&amp;lt;component&amp;gt;&amp;gt;&lt;div&gt;TerminPersistence&lt;/div&gt;" style="html=1;align=left;spacingLeft=4;verticalAlign=top;strokeColor=none;fillColor=none;whiteSpace=wrap;" parent="shifs2Kozp3Mtdg8H0QK-120" vertex="1">
          <mxGeometry width="140" height="40" as="geometry" />
        </mxCell>
        <mxCell id="shifs2Kozp3Mtdg8H0QK-122" value="" style="shape=module;jettyWidth=10;jettyHeight=4;" parent="shifs2Kozp3Mtdg8H0QK-121" vertex="1">
          <mxGeometry x="1" width="16" height="20" relative="1" as="geometry">
            <mxPoint x="-25" y="9" as="offset" />
          </mxGeometry>
        </mxCell>
        <mxCell id="shifs2Kozp3Mtdg8H0QK-175" value="" style="endArrow=none;html=1;rounded=0;align=center;verticalAlign=top;endFill=0;labelBackgroundColor=none;endSize=2;exitX=1;exitY=1;exitDx=0;exitDy=0;" parent="shifs2Kozp3Mtdg8H0QK-261" source="shifs2Kozp3Mtdg8H0QK-66" target="shifs2Kozp3Mtdg8H0QK-176" edge="1">
          <mxGeometry relative="1" as="geometry">
            <mxPoint x="445" y="110.5" as="sourcePoint" />
            <Array as="points">
              <mxPoint x="220" y="130.5" />
              <mxPoint x="70" y="130.5" />
            </Array>
          </mxGeometry>
        </mxCell>
        <mxCell id="shifs2Kozp3Mtdg8H0QK-176" value="" style="shape=requiredInterface;html=1;fontSize=11;align=center;fillColor=none;points=[];aspect=fixed;resizable=0;verticalAlign=bottom;labelPosition=center;verticalLabelPosition=top;flipH=1;rotation=90;" parent="shifs2Kozp3Mtdg8H0QK-261" vertex="1">
          <mxGeometry x="67.5" y="140.5" width="5" height="10" as="geometry" />
        </mxCell>
        <mxCell id="shifs2Kozp3Mtdg8H0QK-177" value="" style="endArrow=none;html=1;rounded=0;align=center;verticalAlign=top;endFill=0;labelBackgroundColor=none;endSize=2;exitX=1;exitY=0.5;exitDx=0;exitDy=0;" parent="shifs2Kozp3Mtdg8H0QK-261" source="shifs2Kozp3Mtdg8H0QK-57" edge="1">
          <mxGeometry relative="1" as="geometry">
            <mxPoint x="455" y="120.5" as="sourcePoint" />
            <mxPoint x="220" y="80.5" as="targetPoint" />
          </mxGeometry>
        </mxCell>
        <mxCell id="shifs2Kozp3Mtdg8H0QK-179" value="" style="endArrow=none;html=1;rounded=0;align=center;verticalAlign=top;endFill=0;labelBackgroundColor=none;endSize=2;exitX=0.5;exitY=1;exitDx=0;exitDy=0;" parent="shifs2Kozp3Mtdg8H0QK-261" source="shifs2Kozp3Mtdg8H0QK-15" target="shifs2Kozp3Mtdg8H0QK-180" edge="1">
          <mxGeometry relative="1" as="geometry">
            <mxPoint x="465" y="130.5" as="sourcePoint" />
          </mxGeometry>
        </mxCell>
        <mxCell id="shifs2Kozp3Mtdg8H0QK-180" value="" style="shape=requiredInterface;html=1;fontSize=11;align=center;fillColor=none;points=[];aspect=fixed;resizable=0;verticalAlign=bottom;labelPosition=center;verticalLabelPosition=top;flipH=1;rotation=90;" parent="shifs2Kozp3Mtdg8H0QK-261" vertex="1">
          <mxGeometry x="67.5" y="259" width="5" height="10" as="geometry" />
        </mxCell>
        <mxCell id="shifs2Kozp3Mtdg8H0QK-226" value="" style="endArrow=none;html=1;rounded=0;align=center;verticalAlign=top;endFill=0;labelBackgroundColor=none;endSize=2;exitX=0.5;exitY=0;exitDx=0;exitDy=0;" parent="shifs2Kozp3Mtdg8H0QK-261" source="shifs2Kozp3Mtdg8H0QK-15" target="shifs2Kozp3Mtdg8H0QK-227" edge="1">
          <mxGeometry relative="1" as="geometry">
            <mxPoint x="404" y="365.5" as="sourcePoint" />
          </mxGeometry>
        </mxCell>
        <mxCell id="shifs2Kozp3Mtdg8H0QK-227" value="" style="ellipse;html=1;fontSize=11;align=center;fillColor=none;points=[];aspect=fixed;resizable=0;verticalAlign=bottom;labelPosition=center;verticalLabelPosition=top;flipH=1;" parent="shifs2Kozp3Mtdg8H0QK-261" vertex="1">
          <mxGeometry x="66" y="150.5" width="8" height="8" as="geometry" />
        </mxCell>
        <mxCell id="shifs2Kozp3Mtdg8H0QK-228" value="" style="endArrow=none;html=1;rounded=0;align=center;verticalAlign=top;endFill=0;labelBackgroundColor=none;endSize=2;exitX=0.5;exitY=0;exitDx=0;exitDy=0;" parent="shifs2Kozp3Mtdg8H0QK-261" source="shifs2Kozp3Mtdg8H0QK-121" target="shifs2Kozp3Mtdg8H0QK-229" edge="1">
          <mxGeometry relative="1" as="geometry">
            <mxPoint x="414" y="375.5" as="sourcePoint" />
          </mxGeometry>
        </mxCell>
        <mxCell id="shifs2Kozp3Mtdg8H0QK-229" value="" style="ellipse;html=1;fontSize=11;align=center;fillColor=none;points=[];aspect=fixed;resizable=0;verticalAlign=bottom;labelPosition=center;verticalLabelPosition=top;flipH=1;" parent="shifs2Kozp3Mtdg8H0QK-261" vertex="1">
          <mxGeometry x="66" y="265.5" width="8" height="8" as="geometry" />
        </mxCell>
        <mxCell id="shifs2Kozp3Mtdg8H0QK-326" value="" style="group" parent="shifs2Kozp3Mtdg8H0QK-1" vertex="1" connectable="0">
          <mxGeometry x="310" y="50" width="280" height="348" as="geometry" />
        </mxCell>
        <mxCell id="shifs2Kozp3Mtdg8H0QK-325" value="" style="group" parent="shifs2Kozp3Mtdg8H0QK-326" vertex="1" connectable="0">
          <mxGeometry y="28" width="280" height="320" as="geometry" />
        </mxCell>
        <mxCell id="shifs2Kozp3Mtdg8H0QK-252" value="" style="group" parent="shifs2Kozp3Mtdg8H0QK-325" vertex="1" connectable="0">
          <mxGeometry x="40" width="240" height="320" as="geometry" />
        </mxCell>
        <mxCell id="shifs2Kozp3Mtdg8H0QK-32" value="" style="fontStyle=1;align=center;verticalAlign=top;childLayout=stackLayout;horizontal=1;horizontalStack=0;resizeParent=1;resizeParentMax=0;resizeLast=0;marginBottom=0;" parent="shifs2Kozp3Mtdg8H0QK-252" vertex="1">
          <mxGeometry y="190.5" width="140" height="40" as="geometry" />
        </mxCell>
        <mxCell id="shifs2Kozp3Mtdg8H0QK-33" value="&amp;lt;&amp;lt;component&amp;gt;&amp;gt;&lt;div&gt;Usermanagement&lt;/div&gt;" style="html=1;align=left;spacingLeft=4;verticalAlign=top;strokeColor=none;fillColor=none;whiteSpace=wrap;" parent="shifs2Kozp3Mtdg8H0QK-32" vertex="1">
          <mxGeometry width="140" height="40" as="geometry" />
        </mxCell>
        <mxCell id="shifs2Kozp3Mtdg8H0QK-34" value="" style="shape=module;jettyWidth=10;jettyHeight=4;" parent="shifs2Kozp3Mtdg8H0QK-33" vertex="1">
          <mxGeometry x="1" width="16" height="20" relative="1" as="geometry">
            <mxPoint x="-25" y="9" as="offset" />
          </mxGeometry>
        </mxCell>
        <mxCell id="shifs2Kozp3Mtdg8H0QK-92" value="" style="fontStyle=1;align=center;verticalAlign=top;childLayout=stackLayout;horizontal=1;horizontalStack=0;resizeParent=1;resizeParentMax=0;resizeLast=0;marginBottom=0;" parent="shifs2Kozp3Mtdg8H0QK-252" vertex="1">
          <mxGeometry y="60" width="210" height="40" as="geometry" />
        </mxCell>
        <mxCell id="shifs2Kozp3Mtdg8H0QK-93" value="&amp;lt;&amp;lt;component&amp;gt;&amp;gt;&lt;div&gt;UsermanagementContactpoints&lt;/div&gt;" style="html=1;align=left;spacingLeft=4;verticalAlign=top;strokeColor=none;fillColor=none;whiteSpace=wrap;" parent="shifs2Kozp3Mtdg8H0QK-92" vertex="1">
          <mxGeometry width="210" height="40" as="geometry" />
        </mxCell>
        <mxCell id="shifs2Kozp3Mtdg8H0QK-94" value="" style="shape=module;jettyWidth=10;jettyHeight=4;" parent="shifs2Kozp3Mtdg8H0QK-93" vertex="1">
          <mxGeometry x="1" width="16" height="20" relative="1" as="geometry">
            <mxPoint x="-25" y="9" as="offset" />
          </mxGeometry>
        </mxCell>
        <mxCell id="shifs2Kozp3Mtdg8H0QK-83" value="" style="fontStyle=1;align=center;verticalAlign=top;childLayout=stackLayout;horizontal=1;horizontalStack=0;resizeParent=1;resizeParentMax=0;resizeLast=0;marginBottom=0;" parent="shifs2Kozp3Mtdg8H0QK-252" vertex="1">
          <mxGeometry y="280" width="140" height="40" as="geometry" />
        </mxCell>
        <mxCell id="shifs2Kozp3Mtdg8H0QK-84" value="&amp;lt;&amp;lt;component&amp;gt;&amp;gt;&lt;div&gt;UserPersistence&lt;/div&gt;" style="html=1;align=left;spacingLeft=4;verticalAlign=top;strokeColor=none;fillColor=none;whiteSpace=wrap;" parent="shifs2Kozp3Mtdg8H0QK-83" vertex="1">
          <mxGeometry width="140" height="40" as="geometry" />
        </mxCell>
        <mxCell id="shifs2Kozp3Mtdg8H0QK-85" value="" style="shape=module;jettyWidth=10;jettyHeight=4;" parent="shifs2Kozp3Mtdg8H0QK-84" vertex="1">
          <mxGeometry x="1" width="16" height="20" relative="1" as="geometry">
            <mxPoint x="-25" y="9" as="offset" />
          </mxGeometry>
        </mxCell>
        <mxCell id="shifs2Kozp3Mtdg8H0QK-80" value="" style="fontStyle=1;align=center;verticalAlign=top;childLayout=stackLayout;horizontal=1;horizontalStack=0;resizeParent=1;resizeParentMax=0;resizeLast=0;marginBottom=0;" parent="shifs2Kozp3Mtdg8H0QK-252" vertex="1">
          <mxGeometry width="160" height="40" as="geometry" />
        </mxCell>
        <mxCell id="shifs2Kozp3Mtdg8H0QK-81" value="&amp;lt;&amp;lt;component&amp;gt;&amp;gt;&lt;div&gt;UsermanagementGui&lt;/div&gt;" style="html=1;align=left;spacingLeft=4;verticalAlign=top;strokeColor=none;fillColor=none;whiteSpace=wrap;" parent="shifs2Kozp3Mtdg8H0QK-80" vertex="1">
          <mxGeometry width="160" height="40" as="geometry" />
        </mxCell>
        <mxCell id="shifs2Kozp3Mtdg8H0QK-82" value="" style="shape=module;jettyWidth=10;jettyHeight=4;" parent="shifs2Kozp3Mtdg8H0QK-81" vertex="1">
          <mxGeometry x="1" width="16" height="20" relative="1" as="geometry">
            <mxPoint x="-25" y="9" as="offset" />
          </mxGeometry>
        </mxCell>
        <mxCell id="shifs2Kozp3Mtdg8H0QK-142" value="" style="endArrow=none;html=1;rounded=0;align=center;verticalAlign=top;endFill=0;labelBackgroundColor=none;endSize=2;exitX=1;exitY=0.5;exitDx=0;exitDy=0;" parent="shifs2Kozp3Mtdg8H0QK-252" source="shifs2Kozp3Mtdg8H0QK-93" target="shifs2Kozp3Mtdg8H0QK-143" edge="1">
          <mxGeometry relative="1" as="geometry">
            <mxPoint x="285" y="50" as="sourcePoint" />
            <Array as="points">
              <mxPoint x="240" y="80" />
              <mxPoint x="240" y="130" />
              <mxPoint x="70" y="130" />
            </Array>
          </mxGeometry>
        </mxCell>
        <mxCell id="shifs2Kozp3Mtdg8H0QK-143" value="" style="shape=requiredInterface;html=1;fontSize=11;align=center;fillColor=none;points=[];aspect=fixed;resizable=0;verticalAlign=bottom;labelPosition=center;verticalLabelPosition=top;flipH=1;rotation=-180;direction=south;" parent="shifs2Kozp3Mtdg8H0QK-252" vertex="1">
          <mxGeometry x="65" y="147.5" width="10" height="5" as="geometry" />
        </mxCell>
        <mxCell id="shifs2Kozp3Mtdg8H0QK-145" value="" style="endArrow=none;html=1;rounded=0;align=center;verticalAlign=top;endFill=0;labelBackgroundColor=none;endSize=2;exitX=1;exitY=0.5;exitDx=0;exitDy=0;" parent="shifs2Kozp3Mtdg8H0QK-252" source="shifs2Kozp3Mtdg8H0QK-81" edge="1">
          <mxGeometry relative="1" as="geometry">
            <mxPoint x="295" y="60" as="sourcePoint" />
            <mxPoint x="240" y="120" as="targetPoint" />
            <Array as="points">
              <mxPoint x="240" y="20" />
            </Array>
          </mxGeometry>
        </mxCell>
        <mxCell id="shifs2Kozp3Mtdg8H0QK-206" value="" style="endArrow=none;html=1;rounded=0;align=center;verticalAlign=top;endFill=0;labelBackgroundColor=none;endSize=2;exitX=0.5;exitY=0;exitDx=0;exitDy=0;" parent="shifs2Kozp3Mtdg8H0QK-252" source="shifs2Kozp3Mtdg8H0QK-33" target="shifs2Kozp3Mtdg8H0QK-207" edge="1">
          <mxGeometry relative="1" as="geometry" />
        </mxCell>
        <mxCell id="shifs2Kozp3Mtdg8H0QK-207" value="" style="ellipse;html=1;fontSize=11;align=center;fillColor=none;points=[];aspect=fixed;resizable=0;verticalAlign=bottom;labelPosition=center;verticalLabelPosition=top;flipH=1;" parent="shifs2Kozp3Mtdg8H0QK-252" vertex="1">
          <mxGeometry x="66" y="152.5" width="8" height="8" as="geometry" />
        </mxCell>
        <mxCell id="shifs2Kozp3Mtdg8H0QK-208" value="" style="endArrow=none;html=1;rounded=0;align=center;verticalAlign=top;endFill=0;labelBackgroundColor=none;endSize=2;exitX=0.5;exitY=0;exitDx=0;exitDy=0;" parent="shifs2Kozp3Mtdg8H0QK-252" source="shifs2Kozp3Mtdg8H0QK-84" target="shifs2Kozp3Mtdg8H0QK-209" edge="1">
          <mxGeometry relative="1" as="geometry">
            <mxPoint x="294" y="365.5" as="sourcePoint" />
          </mxGeometry>
        </mxCell>
        <mxCell id="shifs2Kozp3Mtdg8H0QK-209" value="" style="ellipse;html=1;fontSize=11;align=center;fillColor=none;points=[];aspect=fixed;resizable=0;verticalAlign=bottom;labelPosition=center;verticalLabelPosition=top;flipH=1;" parent="shifs2Kozp3Mtdg8H0QK-252" vertex="1">
          <mxGeometry x="66" y="260.5" width="8" height="8" as="geometry" />
        </mxCell>
        <mxCell id="shifs2Kozp3Mtdg8H0QK-147" value="" style="endArrow=none;html=1;rounded=0;align=center;verticalAlign=top;endFill=0;labelBackgroundColor=none;endSize=2;exitX=0.5;exitY=1;exitDx=0;exitDy=0;" parent="shifs2Kozp3Mtdg8H0QK-252" source="shifs2Kozp3Mtdg8H0QK-33" target="shifs2Kozp3Mtdg8H0QK-148" edge="1">
          <mxGeometry relative="1" as="geometry">
            <mxPoint x="161.5" y="220.5" as="sourcePoint" />
          </mxGeometry>
        </mxCell>
        <mxCell id="shifs2Kozp3Mtdg8H0QK-148" value="" style="shape=requiredInterface;html=1;fontSize=11;align=center;fillColor=none;points=[];aspect=fixed;resizable=0;verticalAlign=bottom;labelPosition=center;verticalLabelPosition=top;flipH=1;rotation=90;" parent="shifs2Kozp3Mtdg8H0QK-252" vertex="1">
          <mxGeometry x="67.5" y="250.5" width="5" height="10" as="geometry" />
        </mxCell>
        <mxCell id="shifs2Kozp3Mtdg8H0QK-305" value="" style="group" parent="shifs2Kozp3Mtdg8H0QK-1" vertex="1" connectable="0">
          <mxGeometry x="320" y="491.5" width="270" height="358.5" as="geometry" />
        </mxCell>
        <mxCell id="shifs2Kozp3Mtdg8H0QK-267" value="" style="group" parent="shifs2Kozp3Mtdg8H0QK-305" vertex="1" connectable="0">
          <mxGeometry x="40" width="230" height="358.5" as="geometry" />
        </mxCell>
        <mxCell id="shifs2Kozp3Mtdg8H0QK-263" value="" style="group" parent="shifs2Kozp3Mtdg8H0QK-267" vertex="1" connectable="0">
          <mxGeometry y="37.5" width="230" height="321" as="geometry" />
        </mxCell>
        <mxCell id="shifs2Kozp3Mtdg8H0QK-17" value="" style="fontStyle=1;align=center;verticalAlign=top;childLayout=stackLayout;horizontal=1;horizontalStack=0;resizeParent=1;resizeParentMax=0;resizeLast=0;marginBottom=0;" parent="shifs2Kozp3Mtdg8H0QK-263" vertex="1">
          <mxGeometry y="191" width="160" height="40" as="geometry" />
        </mxCell>
        <mxCell id="shifs2Kozp3Mtdg8H0QK-18" value="&amp;lt;&amp;lt;component&amp;gt;&amp;gt;&lt;div&gt;Absencemanagement&lt;/div&gt;" style="html=1;align=left;spacingLeft=4;verticalAlign=top;strokeColor=none;fillColor=none;whiteSpace=wrap;" parent="shifs2Kozp3Mtdg8H0QK-17" vertex="1">
          <mxGeometry width="160" height="40" as="geometry" />
        </mxCell>
        <mxCell id="shifs2Kozp3Mtdg8H0QK-19" value="" style="shape=module;jettyWidth=10;jettyHeight=4;" parent="shifs2Kozp3Mtdg8H0QK-18" vertex="1">
          <mxGeometry x="1" width="16" height="20" relative="1" as="geometry">
            <mxPoint x="-25" y="9" as="offset" />
          </mxGeometry>
        </mxCell>
        <mxCell id="shifs2Kozp3Mtdg8H0QK-53" value="" style="fontStyle=1;align=center;verticalAlign=top;childLayout=stackLayout;horizontal=1;horizontalStack=0;resizeParent=1;resizeParentMax=0;resizeLast=0;marginBottom=0;" parent="shifs2Kozp3Mtdg8H0QK-263" vertex="1">
          <mxGeometry y="60" width="180" height="40" as="geometry" />
        </mxCell>
        <mxCell id="shifs2Kozp3Mtdg8H0QK-54" value="&amp;lt;&amp;lt;component&amp;gt;&amp;gt;&lt;div&gt;AbsencemanagementGui&lt;/div&gt;" style="html=1;align=left;spacingLeft=4;verticalAlign=top;strokeColor=none;fillColor=none;whiteSpace=wrap;" parent="shifs2Kozp3Mtdg8H0QK-53" vertex="1">
          <mxGeometry width="180" height="40" as="geometry" />
        </mxCell>
        <mxCell id="shifs2Kozp3Mtdg8H0QK-55" value="" style="shape=module;jettyWidth=10;jettyHeight=4;" parent="shifs2Kozp3Mtdg8H0QK-54" vertex="1">
          <mxGeometry x="1" width="16" height="20" relative="1" as="geometry">
            <mxPoint x="-25" y="9" as="offset" />
          </mxGeometry>
        </mxCell>
        <mxCell id="shifs2Kozp3Mtdg8H0QK-138" value="" style="fontStyle=1;align=center;verticalAlign=top;childLayout=stackLayout;horizontal=1;horizontalStack=0;resizeParent=1;resizeParentMax=0;resizeLast=0;marginBottom=0;" parent="shifs2Kozp3Mtdg8H0QK-263" vertex="1">
          <mxGeometry width="230" height="40" as="geometry" />
        </mxCell>
        <mxCell id="shifs2Kozp3Mtdg8H0QK-139" value="&amp;lt;&amp;lt;component&amp;gt;&amp;gt;&lt;div&gt;AbsencemanagementContactpoints&lt;br&gt;&lt;/div&gt;" style="html=1;align=left;spacingLeft=4;verticalAlign=top;strokeColor=none;fillColor=none;whiteSpace=wrap;" parent="shifs2Kozp3Mtdg8H0QK-138" vertex="1">
          <mxGeometry width="230" height="40" as="geometry" />
        </mxCell>
        <mxCell id="shifs2Kozp3Mtdg8H0QK-140" value="" style="shape=module;jettyWidth=10;jettyHeight=4;" parent="shifs2Kozp3Mtdg8H0QK-139" vertex="1">
          <mxGeometry x="1" width="16" height="20" relative="1" as="geometry">
            <mxPoint x="-25" y="9" as="offset" />
          </mxGeometry>
        </mxCell>
        <mxCell id="shifs2Kozp3Mtdg8H0QK-123" value="" style="fontStyle=1;align=center;verticalAlign=top;childLayout=stackLayout;horizontal=1;horizontalStack=0;resizeParent=1;resizeParentMax=0;resizeLast=0;marginBottom=0;" parent="shifs2Kozp3Mtdg8H0QK-263" vertex="1">
          <mxGeometry y="281" width="160" height="40" as="geometry" />
        </mxCell>
        <mxCell id="shifs2Kozp3Mtdg8H0QK-124" value="&amp;lt;&amp;lt;component&amp;gt;&amp;gt;&lt;div&gt;AbsencePersistence&lt;/div&gt;" style="html=1;align=left;spacingLeft=4;verticalAlign=top;strokeColor=none;fillColor=none;whiteSpace=wrap;" parent="shifs2Kozp3Mtdg8H0QK-123" vertex="1">
          <mxGeometry width="160" height="40" as="geometry" />
        </mxCell>
        <mxCell id="shifs2Kozp3Mtdg8H0QK-125" value="" style="shape=module;jettyWidth=10;jettyHeight=4;" parent="shifs2Kozp3Mtdg8H0QK-124" vertex="1">
          <mxGeometry x="1" width="16" height="20" relative="1" as="geometry">
            <mxPoint x="-25" y="9" as="offset" />
          </mxGeometry>
        </mxCell>
        <mxCell id="shifs2Kozp3Mtdg8H0QK-187" value="" style="endArrow=none;html=1;rounded=0;align=center;verticalAlign=top;endFill=0;labelBackgroundColor=none;endSize=2;exitX=1;exitY=1;exitDx=0;exitDy=0;" parent="shifs2Kozp3Mtdg8H0QK-263" source="shifs2Kozp3Mtdg8H0QK-139" target="shifs2Kozp3Mtdg8H0QK-188" edge="1">
          <mxGeometry relative="1" as="geometry">
            <mxPoint x="460" y="27.5" as="sourcePoint" />
            <Array as="points">
              <mxPoint x="230" y="131" />
              <mxPoint x="80" y="131" />
            </Array>
          </mxGeometry>
        </mxCell>
        <mxCell id="shifs2Kozp3Mtdg8H0QK-188" value="" style="shape=requiredInterface;html=1;fontSize=11;align=center;fillColor=none;points=[];aspect=fixed;resizable=0;verticalAlign=bottom;labelPosition=center;verticalLabelPosition=top;flipH=1;rotation=90;" parent="shifs2Kozp3Mtdg8H0QK-263" vertex="1">
          <mxGeometry x="77.5" y="142.5" width="5" height="10" as="geometry" />
        </mxCell>
        <mxCell id="shifs2Kozp3Mtdg8H0QK-189" value="" style="endArrow=none;html=1;rounded=0;align=center;verticalAlign=top;endFill=0;labelBackgroundColor=none;endSize=2;exitX=1;exitY=0.5;exitDx=0;exitDy=0;" parent="shifs2Kozp3Mtdg8H0QK-263" source="shifs2Kozp3Mtdg8H0QK-54" edge="1">
          <mxGeometry relative="1" as="geometry">
            <mxPoint x="470" y="37.5" as="sourcePoint" />
            <mxPoint x="230" y="80" as="targetPoint" />
          </mxGeometry>
        </mxCell>
        <mxCell id="shifs2Kozp3Mtdg8H0QK-191" value="" style="endArrow=none;html=1;rounded=0;align=center;verticalAlign=top;endFill=0;labelBackgroundColor=none;endSize=2;exitX=0.5;exitY=1;exitDx=0;exitDy=0;" parent="shifs2Kozp3Mtdg8H0QK-263" source="shifs2Kozp3Mtdg8H0QK-18" target="shifs2Kozp3Mtdg8H0QK-192" edge="1">
          <mxGeometry relative="1" as="geometry">
            <mxPoint x="480" y="47.5" as="sourcePoint" />
          </mxGeometry>
        </mxCell>
        <mxCell id="shifs2Kozp3Mtdg8H0QK-192" value="" style="shape=requiredInterface;html=1;fontSize=11;align=center;fillColor=none;points=[];aspect=fixed;resizable=0;verticalAlign=bottom;labelPosition=center;verticalLabelPosition=top;flipH=1;rotation=90;" parent="shifs2Kozp3Mtdg8H0QK-263" vertex="1">
          <mxGeometry x="77.5" y="251" width="5" height="10" as="geometry" />
        </mxCell>
        <mxCell id="shifs2Kozp3Mtdg8H0QK-234" value="" style="endArrow=none;html=1;rounded=0;align=center;verticalAlign=top;endFill=0;labelBackgroundColor=none;endSize=2;exitX=0.5;exitY=0;exitDx=0;exitDy=0;" parent="shifs2Kozp3Mtdg8H0QK-263" source="shifs2Kozp3Mtdg8H0QK-18" target="shifs2Kozp3Mtdg8H0QK-235" edge="1">
          <mxGeometry relative="1" as="geometry">
            <mxPoint x="433.5" y="-329" as="sourcePoint" />
          </mxGeometry>
        </mxCell>
        <mxCell id="shifs2Kozp3Mtdg8H0QK-235" value="" style="ellipse;html=1;fontSize=11;align=center;fillColor=none;points=[];aspect=fixed;resizable=0;verticalAlign=bottom;labelPosition=center;verticalLabelPosition=top;flipH=1;" parent="shifs2Kozp3Mtdg8H0QK-263" vertex="1">
          <mxGeometry x="76" y="153.5" width="8" height="8" as="geometry" />
        </mxCell>
        <mxCell id="shifs2Kozp3Mtdg8H0QK-236" value="" style="endArrow=none;html=1;rounded=0;align=center;verticalAlign=top;endFill=0;labelBackgroundColor=none;endSize=2;exitX=0.5;exitY=0;exitDx=0;exitDy=0;" parent="shifs2Kozp3Mtdg8H0QK-263" source="shifs2Kozp3Mtdg8H0QK-124" target="shifs2Kozp3Mtdg8H0QK-237" edge="1">
          <mxGeometry relative="1" as="geometry">
            <mxPoint x="443.5" y="-319" as="sourcePoint" />
          </mxGeometry>
        </mxCell>
        <mxCell id="shifs2Kozp3Mtdg8H0QK-237" value="" style="ellipse;html=1;fontSize=11;align=center;fillColor=none;points=[];aspect=fixed;resizable=0;verticalAlign=bottom;labelPosition=center;verticalLabelPosition=top;flipH=1;" parent="shifs2Kozp3Mtdg8H0QK-263" vertex="1">
          <mxGeometry x="76" y="261" width="8" height="8" as="geometry" />
        </mxCell>
        <mxCell id="shifs2Kozp3Mtdg8H0QK-268" value="" style="group" parent="shifs2Kozp3Mtdg8H0QK-1" vertex="1" connectable="0">
          <mxGeometry x="30" y="491.5" width="270" height="360" as="geometry" />
        </mxCell>
        <mxCell id="shifs2Kozp3Mtdg8H0QK-256" value="" style="group" parent="shifs2Kozp3Mtdg8H0QK-268" vertex="1" connectable="0">
          <mxGeometry y="40" width="270" height="320" as="geometry" />
        </mxCell>
        <mxCell id="shifs2Kozp3Mtdg8H0QK-11" value="" style="fontStyle=1;align=center;verticalAlign=top;childLayout=stackLayout;horizontal=1;horizontalStack=0;resizeParent=1;resizeParentMax=0;resizeLast=0;marginBottom=0;" parent="shifs2Kozp3Mtdg8H0QK-256" vertex="1">
          <mxGeometry y="190" width="180" height="40" as="geometry" />
        </mxCell>
        <mxCell id="shifs2Kozp3Mtdg8H0QK-12" value="&amp;lt;&amp;lt;component&amp;gt;&amp;gt;&lt;div&gt;Veranstaltungmanagement&lt;/div&gt;" style="html=1;align=left;spacingLeft=4;verticalAlign=top;strokeColor=none;fillColor=none;whiteSpace=wrap;" parent="shifs2Kozp3Mtdg8H0QK-11" vertex="1">
          <mxGeometry width="180" height="40" as="geometry" />
        </mxCell>
        <mxCell id="shifs2Kozp3Mtdg8H0QK-13" value="" style="shape=module;jettyWidth=10;jettyHeight=4;" parent="shifs2Kozp3Mtdg8H0QK-12" vertex="1">
          <mxGeometry x="1" width="16" height="20" relative="1" as="geometry">
            <mxPoint x="-25" y="9" as="offset" />
          </mxGeometry>
        </mxCell>
        <mxCell id="shifs2Kozp3Mtdg8H0QK-59" value="" style="fontStyle=1;align=center;verticalAlign=top;childLayout=stackLayout;horizontal=1;horizontalStack=0;resizeParent=1;resizeParentMax=0;resizeLast=0;marginBottom=0;" parent="shifs2Kozp3Mtdg8H0QK-256" vertex="1">
          <mxGeometry y="60" width="220" height="40" as="geometry" />
        </mxCell>
        <mxCell id="shifs2Kozp3Mtdg8H0QK-60" value="&amp;lt;&amp;lt;component&amp;gt;&amp;gt;&lt;div&gt;VeranstaltungmanagementGui&lt;/div&gt;" style="html=1;align=left;spacingLeft=4;verticalAlign=top;strokeColor=none;fillColor=none;whiteSpace=wrap;" parent="shifs2Kozp3Mtdg8H0QK-59" vertex="1">
          <mxGeometry width="220" height="40" as="geometry" />
        </mxCell>
        <mxCell id="shifs2Kozp3Mtdg8H0QK-61" value="" style="shape=module;jettyWidth=10;jettyHeight=4;" parent="shifs2Kozp3Mtdg8H0QK-60" vertex="1">
          <mxGeometry x="1" width="16" height="20" relative="1" as="geometry">
            <mxPoint x="-25" y="9" as="offset" />
          </mxGeometry>
        </mxCell>
        <mxCell id="shifs2Kozp3Mtdg8H0QK-44" value="" style="fontStyle=1;align=center;verticalAlign=top;childLayout=stackLayout;horizontal=1;horizontalStack=0;resizeParent=1;resizeParentMax=0;resizeLast=0;marginBottom=0;" parent="shifs2Kozp3Mtdg8H0QK-256" vertex="1">
          <mxGeometry width="270" height="40" as="geometry" />
        </mxCell>
        <mxCell id="shifs2Kozp3Mtdg8H0QK-45" value="&amp;lt;&amp;lt;component&amp;gt;&amp;gt;&lt;div&gt;VeranstaltungmanagementContactpoints&lt;/div&gt;" style="html=1;align=left;spacingLeft=4;verticalAlign=top;strokeColor=none;fillColor=none;whiteSpace=wrap;" parent="shifs2Kozp3Mtdg8H0QK-44" vertex="1">
          <mxGeometry width="270" height="40" as="geometry" />
        </mxCell>
        <mxCell id="shifs2Kozp3Mtdg8H0QK-46" value="" style="shape=module;jettyWidth=10;jettyHeight=4;" parent="shifs2Kozp3Mtdg8H0QK-45" vertex="1">
          <mxGeometry x="1" width="16" height="20" relative="1" as="geometry">
            <mxPoint x="-25" y="9" as="offset" />
          </mxGeometry>
        </mxCell>
        <mxCell id="shifs2Kozp3Mtdg8H0QK-126" value="" style="fontStyle=1;align=center;verticalAlign=top;childLayout=stackLayout;horizontal=1;horizontalStack=0;resizeParent=1;resizeParentMax=0;resizeLast=0;marginBottom=0;" parent="shifs2Kozp3Mtdg8H0QK-256" vertex="1">
          <mxGeometry y="280" width="180" height="40" as="geometry" />
        </mxCell>
        <mxCell id="shifs2Kozp3Mtdg8H0QK-127" value="&amp;lt;&amp;lt;component&amp;gt;&amp;gt;&lt;div&gt;VeranstaltungPersistence&lt;/div&gt;" style="html=1;align=left;spacingLeft=4;verticalAlign=top;strokeColor=none;fillColor=none;whiteSpace=wrap;" parent="shifs2Kozp3Mtdg8H0QK-126" vertex="1">
          <mxGeometry width="180" height="40" as="geometry" />
        </mxCell>
        <mxCell id="shifs2Kozp3Mtdg8H0QK-128" value="" style="shape=module;jettyWidth=10;jettyHeight=4;" parent="shifs2Kozp3Mtdg8H0QK-127" vertex="1">
          <mxGeometry x="1" width="16" height="20" relative="1" as="geometry">
            <mxPoint x="-25" y="9" as="offset" />
          </mxGeometry>
        </mxCell>
        <mxCell id="shifs2Kozp3Mtdg8H0QK-169" value="" style="endArrow=none;html=1;rounded=0;align=center;verticalAlign=top;endFill=0;labelBackgroundColor=none;endSize=2;exitX=1;exitY=1;exitDx=0;exitDy=0;" parent="shifs2Kozp3Mtdg8H0QK-256" source="shifs2Kozp3Mtdg8H0QK-45" target="shifs2Kozp3Mtdg8H0QK-170" edge="1">
          <mxGeometry relative="1" as="geometry">
            <mxPoint x="415" y="440" as="sourcePoint" />
            <Array as="points">
              <mxPoint x="270" y="130" />
              <mxPoint x="90" y="130" />
            </Array>
          </mxGeometry>
        </mxCell>
        <mxCell id="shifs2Kozp3Mtdg8H0QK-170" value="" style="shape=requiredInterface;html=1;fontSize=11;align=center;fillColor=none;points=[];aspect=fixed;resizable=0;verticalAlign=bottom;labelPosition=center;verticalLabelPosition=top;flipH=1;rotation=90;" parent="shifs2Kozp3Mtdg8H0QK-256" vertex="1">
          <mxGeometry x="87.5" y="140" width="5" height="10" as="geometry" />
        </mxCell>
        <mxCell id="shifs2Kozp3Mtdg8H0QK-171" value="" style="endArrow=none;html=1;rounded=0;align=center;verticalAlign=top;endFill=0;labelBackgroundColor=none;endSize=2;exitX=1;exitY=0.5;exitDx=0;exitDy=0;" parent="shifs2Kozp3Mtdg8H0QK-256" source="shifs2Kozp3Mtdg8H0QK-60" edge="1">
          <mxGeometry relative="1" as="geometry">
            <mxPoint x="425" y="450" as="sourcePoint" />
            <mxPoint x="270" y="80" as="targetPoint" />
          </mxGeometry>
        </mxCell>
        <mxCell id="shifs2Kozp3Mtdg8H0QK-173" value="" style="endArrow=none;html=1;rounded=0;align=center;verticalAlign=top;endFill=0;labelBackgroundColor=none;endSize=2;exitX=0.5;exitY=1;exitDx=0;exitDy=0;" parent="shifs2Kozp3Mtdg8H0QK-256" source="shifs2Kozp3Mtdg8H0QK-12" target="shifs2Kozp3Mtdg8H0QK-174" edge="1">
          <mxGeometry relative="1" as="geometry">
            <mxPoint x="435" y="460" as="sourcePoint" />
          </mxGeometry>
        </mxCell>
        <mxCell id="shifs2Kozp3Mtdg8H0QK-174" value="" style="shape=requiredInterface;html=1;fontSize=11;align=center;fillColor=none;points=[];aspect=fixed;resizable=0;verticalAlign=bottom;labelPosition=center;verticalLabelPosition=top;flipH=1;rotation=90;" parent="shifs2Kozp3Mtdg8H0QK-256" vertex="1">
          <mxGeometry x="87.5" y="250.5" width="5" height="10" as="geometry" />
        </mxCell>
        <mxCell id="shifs2Kozp3Mtdg8H0QK-222" value="" style="endArrow=none;html=1;rounded=0;align=center;verticalAlign=top;endFill=0;labelBackgroundColor=none;endSize=2;exitX=0.5;exitY=0;exitDx=0;exitDy=0;" parent="shifs2Kozp3Mtdg8H0QK-256" source="shifs2Kozp3Mtdg8H0QK-12" target="shifs2Kozp3Mtdg8H0QK-223" edge="1">
          <mxGeometry relative="1" as="geometry">
            <mxPoint x="384" y="705" as="sourcePoint" />
          </mxGeometry>
        </mxCell>
        <mxCell id="shifs2Kozp3Mtdg8H0QK-223" value="" style="ellipse;html=1;fontSize=11;align=center;fillColor=none;points=[];aspect=fixed;resizable=0;verticalAlign=bottom;labelPosition=center;verticalLabelPosition=top;flipH=1;" parent="shifs2Kozp3Mtdg8H0QK-256" vertex="1">
          <mxGeometry x="86" y="150" width="8" height="8" as="geometry" />
        </mxCell>
        <mxCell id="shifs2Kozp3Mtdg8H0QK-224" value="" style="endArrow=none;html=1;rounded=0;align=center;verticalAlign=top;endFill=0;labelBackgroundColor=none;endSize=2;exitX=0.5;exitY=0;exitDx=0;exitDy=0;" parent="shifs2Kozp3Mtdg8H0QK-256" source="shifs2Kozp3Mtdg8H0QK-127" target="shifs2Kozp3Mtdg8H0QK-225" edge="1">
          <mxGeometry relative="1" as="geometry">
            <mxPoint x="394" y="715" as="sourcePoint" />
          </mxGeometry>
        </mxCell>
        <mxCell id="shifs2Kozp3Mtdg8H0QK-225" value="" style="ellipse;html=1;fontSize=11;align=center;fillColor=none;points=[];aspect=fixed;resizable=0;verticalAlign=bottom;labelPosition=center;verticalLabelPosition=top;flipH=1;" parent="shifs2Kozp3Mtdg8H0QK-256" vertex="1">
          <mxGeometry x="86" y="260.5" width="8" height="8" as="geometry" />
        </mxCell>
        <mxCell id="shifs2Kozp3Mtdg8H0QK-35" value="" style="fontStyle=1;align=center;verticalAlign=top;childLayout=stackLayout;horizontal=1;horizontalStack=0;resizeParent=1;resizeParentMax=0;resizeLast=0;marginBottom=0;" parent="shifs2Kozp3Mtdg8H0QK-1" vertex="1">
          <mxGeometry x="190" y="14.5" width="160" height="40" as="geometry" />
        </mxCell>
        <mxCell id="shifs2Kozp3Mtdg8H0QK-36" value="&amp;lt;&amp;lt;component&amp;gt;&amp;gt;&lt;div&gt;ContactpointsSerializer&lt;/div&gt;" style="html=1;align=left;spacingLeft=4;verticalAlign=top;strokeColor=none;fillColor=none;whiteSpace=wrap;" parent="shifs2Kozp3Mtdg8H0QK-35" vertex="1">
          <mxGeometry width="160" height="40" as="geometry" />
        </mxCell>
        <mxCell id="shifs2Kozp3Mtdg8H0QK-37" value="" style="shape=module;jettyWidth=10;jettyHeight=4;" parent="shifs2Kozp3Mtdg8H0QK-36" vertex="1">
          <mxGeometry x="1" width="16" height="20" relative="1" as="geometry">
            <mxPoint x="-25" y="9" as="offset" />
          </mxGeometry>
        </mxCell>
        <mxCell id="shifs2Kozp3Mtdg8H0QK-299" value="" style="group" parent="shifs2Kozp3Mtdg8H0QK-1" vertex="1" connectable="0">
          <mxGeometry x="394" y="-20" width="140" height="74.5" as="geometry" />
        </mxCell>
        <mxCell id="shifs2Kozp3Mtdg8H0QK-41" value="" style="fontStyle=1;align=center;verticalAlign=top;childLayout=stackLayout;horizontal=1;horizontalStack=0;resizeParent=1;resizeParentMax=0;resizeLast=0;marginBottom=0;" parent="shifs2Kozp3Mtdg8H0QK-299" vertex="1">
          <mxGeometry y="34.5" width="140" height="40" as="geometry" />
        </mxCell>
        <mxCell id="shifs2Kozp3Mtdg8H0QK-42" value="&amp;lt;&amp;lt;component&amp;gt;&amp;gt;&lt;div&gt;Authorization&lt;/div&gt;" style="html=1;align=left;spacingLeft=4;verticalAlign=top;strokeColor=none;fillColor=none;whiteSpace=wrap;" parent="shifs2Kozp3Mtdg8H0QK-41" vertex="1">
          <mxGeometry width="140" height="40" as="geometry" />
        </mxCell>
        <mxCell id="shifs2Kozp3Mtdg8H0QK-43" value="" style="shape=module;jettyWidth=10;jettyHeight=4;" parent="shifs2Kozp3Mtdg8H0QK-42" vertex="1">
          <mxGeometry x="1" width="16" height="20" relative="1" as="geometry">
            <mxPoint x="-25" y="9" as="offset" />
          </mxGeometry>
        </mxCell>
        <mxCell id="1CH3ANIibo0f4xU5voni-1" value="" style="fontStyle=1;align=center;verticalAlign=top;childLayout=stackLayout;horizontal=1;horizontalStack=0;resizeParent=1;resizeParentMax=0;resizeLast=0;marginBottom=0;" vertex="1" parent="shifs2Kozp3Mtdg8H0QK-1">
          <mxGeometry x="360" y="440" width="140" height="40" as="geometry" />
        </mxCell>
        <mxCell id="1CH3ANIibo0f4xU5voni-2" value="&amp;lt;&amp;lt;component&amp;gt;&amp;gt;&lt;div&gt;Mail&lt;/div&gt;" style="html=1;align=left;spacingLeft=4;verticalAlign=top;strokeColor=none;fillColor=none;whiteSpace=wrap;" vertex="1" parent="1CH3ANIibo0f4xU5voni-1">
          <mxGeometry width="140" height="40" as="geometry" />
        </mxCell>
        <mxCell id="1CH3ANIibo0f4xU5voni-3" value="" style="shape=module;jettyWidth=10;jettyHeight=4;" vertex="1" parent="1CH3ANIibo0f4xU5voni-2">
          <mxGeometry x="1" width="16" height="20" relative="1" as="geometry">
            <mxPoint x="-25" y="9" as="offset" />
          </mxGeometry>
        </mxCell>
        <mxCell id="shifs2Kozp3Mtdg8H0QK-306" value="" style="group" parent="shifs2Kozp3Mtdg8H0QK-1" vertex="1" connectable="0">
          <mxGeometry x="910" y="530" width="220" height="230" as="geometry" />
        </mxCell>
        <mxCell id="shifs2Kozp3Mtdg8H0QK-260" value="" style="group" parent="shifs2Kozp3Mtdg8H0QK-306" vertex="1" connectable="0">
          <mxGeometry width="220" height="230" as="geometry" />
        </mxCell>
        <mxCell id="shifs2Kozp3Mtdg8H0QK-38" value="" style="fontStyle=1;align=center;verticalAlign=top;childLayout=stackLayout;horizontal=1;horizontalStack=0;resizeParent=1;resizeParentMax=0;resizeLast=0;marginBottom=0;" parent="shifs2Kozp3Mtdg8H0QK-260" vertex="1">
          <mxGeometry y="190" width="140" height="40" as="geometry" />
        </mxCell>
        <mxCell id="shifs2Kozp3Mtdg8H0QK-39" value="&amp;lt;&amp;lt;component&amp;gt;&amp;gt;&lt;div&gt;Authentication&lt;br&gt;&lt;/div&gt;" style="html=1;align=left;spacingLeft=4;verticalAlign=top;strokeColor=none;fillColor=none;whiteSpace=wrap;" parent="shifs2Kozp3Mtdg8H0QK-38" vertex="1">
          <mxGeometry width="140" height="40" as="geometry" />
        </mxCell>
        <mxCell id="shifs2Kozp3Mtdg8H0QK-40" value="" style="shape=module;jettyWidth=10;jettyHeight=4;" parent="shifs2Kozp3Mtdg8H0QK-39" vertex="1">
          <mxGeometry x="1" width="16" height="20" relative="1" as="geometry">
            <mxPoint x="-25" y="9" as="offset" />
          </mxGeometry>
        </mxCell>
        <mxCell id="shifs2Kozp3Mtdg8H0QK-89" value="" style="fontStyle=1;align=center;verticalAlign=top;childLayout=stackLayout;horizontal=1;horizontalStack=0;resizeParent=1;resizeParentMax=0;resizeLast=0;marginBottom=0;" parent="shifs2Kozp3Mtdg8H0QK-260" vertex="1">
          <mxGeometry y="60" width="190" height="40" as="geometry" />
        </mxCell>
        <mxCell id="shifs2Kozp3Mtdg8H0QK-90" value="&amp;lt;&amp;lt;component&amp;gt;&amp;gt;&lt;div&gt;AuthenticationContactpoints&lt;br&gt;&lt;/div&gt;" style="html=1;align=left;spacingLeft=4;verticalAlign=top;strokeColor=none;fillColor=none;whiteSpace=wrap;" parent="shifs2Kozp3Mtdg8H0QK-89" vertex="1">
          <mxGeometry width="190" height="40" as="geometry" />
        </mxCell>
        <mxCell id="shifs2Kozp3Mtdg8H0QK-91" value="" style="shape=module;jettyWidth=10;jettyHeight=4;" parent="shifs2Kozp3Mtdg8H0QK-90" vertex="1">
          <mxGeometry x="1" width="16" height="20" relative="1" as="geometry">
            <mxPoint x="-25" y="9" as="offset" />
          </mxGeometry>
        </mxCell>
        <mxCell id="shifs2Kozp3Mtdg8H0QK-132" value="" style="fontStyle=1;align=center;verticalAlign=top;childLayout=stackLayout;horizontal=1;horizontalStack=0;resizeParent=1;resizeParentMax=0;resizeLast=0;marginBottom=0;" parent="shifs2Kozp3Mtdg8H0QK-260" vertex="1">
          <mxGeometry width="140" height="40" as="geometry" />
        </mxCell>
        <mxCell id="shifs2Kozp3Mtdg8H0QK-133" value="&amp;lt;&amp;lt;component&amp;gt;&amp;gt;&lt;div&gt;AuthenticationGui&lt;br&gt;&lt;/div&gt;" style="html=1;align=left;spacingLeft=4;verticalAlign=top;strokeColor=none;fillColor=none;whiteSpace=wrap;" parent="shifs2Kozp3Mtdg8H0QK-132" vertex="1">
          <mxGeometry width="140" height="40" as="geometry" />
        </mxCell>
        <mxCell id="shifs2Kozp3Mtdg8H0QK-134" value="" style="shape=module;jettyWidth=10;jettyHeight=4;" parent="shifs2Kozp3Mtdg8H0QK-133" vertex="1">
          <mxGeometry x="1" width="16" height="20" relative="1" as="geometry">
            <mxPoint x="-25" y="9" as="offset" />
          </mxGeometry>
        </mxCell>
        <mxCell id="shifs2Kozp3Mtdg8H0QK-215" value="" style="ellipse;html=1;fontSize=11;align=center;fillColor=none;points=[];aspect=fixed;resizable=0;verticalAlign=bottom;labelPosition=center;verticalLabelPosition=top;flipH=1;" parent="shifs2Kozp3Mtdg8H0QK-260" vertex="1">
          <mxGeometry x="66" y="150" width="8" height="8" as="geometry" />
        </mxCell>
        <mxCell id="shifs2Kozp3Mtdg8H0QK-214" value="" style="endArrow=none;html=1;rounded=0;align=center;verticalAlign=top;endFill=0;labelBackgroundColor=none;endSize=2;exitX=0.5;exitY=0;exitDx=0;exitDy=0;" parent="shifs2Kozp3Mtdg8H0QK-260" source="shifs2Kozp3Mtdg8H0QK-39" target="shifs2Kozp3Mtdg8H0QK-215" edge="1">
          <mxGeometry relative="1" as="geometry">
            <mxPoint x="344" y="-335" as="sourcePoint" />
          </mxGeometry>
        </mxCell>
        <mxCell id="shifs2Kozp3Mtdg8H0QK-156" value="" style="shape=requiredInterface;html=1;fontSize=11;align=center;fillColor=none;points=[];aspect=fixed;resizable=0;verticalAlign=bottom;labelPosition=center;verticalLabelPosition=top;flipH=1;rotation=90;" parent="shifs2Kozp3Mtdg8H0QK-260" vertex="1">
          <mxGeometry x="67.5" y="140" width="5" height="10" as="geometry" />
        </mxCell>
        <mxCell id="shifs2Kozp3Mtdg8H0QK-155" value="" style="endArrow=none;html=1;rounded=0;align=center;verticalAlign=top;endFill=0;labelBackgroundColor=none;endSize=2;exitX=1;exitY=0.5;exitDx=0;exitDy=0;" parent="shifs2Kozp3Mtdg8H0QK-260" source="shifs2Kozp3Mtdg8H0QK-90" target="shifs2Kozp3Mtdg8H0QK-156" edge="1">
          <mxGeometry relative="1" as="geometry">
            <mxPoint x="345" y="-630" as="sourcePoint" />
            <Array as="points">
              <mxPoint x="220" y="80" />
              <mxPoint x="220" y="130" />
              <mxPoint x="70" y="130" />
            </Array>
          </mxGeometry>
        </mxCell>
        <mxCell id="shifs2Kozp3Mtdg8H0QK-157" value="" style="endArrow=none;html=1;rounded=0;align=center;verticalAlign=top;endFill=0;labelBackgroundColor=none;endSize=2;exitX=1;exitY=0.5;exitDx=0;exitDy=0;" parent="shifs2Kozp3Mtdg8H0QK-306" source="shifs2Kozp3Mtdg8H0QK-133" edge="1">
          <mxGeometry relative="1" as="geometry">
            <mxPoint x="1185" y="-595" as="sourcePoint" />
            <mxPoint x="220" y="105" as="targetPoint" />
            <Array as="points">
              <mxPoint x="220" y="20" />
            </Array>
          </mxGeometry>
        </mxCell>
        <mxCell id="1CH3ANIibo0f4xU5voni-4" value="" style="group" vertex="1" connectable="0" parent="shifs2Kozp3Mtdg8H0QK-1">
          <mxGeometry x="630" y="530" width="250" height="321" as="geometry" />
        </mxCell>
        <mxCell id="shifs2Kozp3Mtdg8H0QK-151" value="" style="endArrow=none;html=1;rounded=0;align=center;verticalAlign=top;endFill=0;labelBackgroundColor=none;endSize=2;exitX=1;exitY=0.5;exitDx=0;exitDy=0;" parent="1CH3ANIibo0f4xU5voni-4" source="shifs2Kozp3Mtdg8H0QK-63" edge="1">
          <mxGeometry relative="1" as="geometry">
            <mxPoint x="325" y="-279" as="sourcePoint" />
            <mxPoint x="250" y="91" as="targetPoint" />
            <Array as="points">
              <mxPoint x="250" y="20" />
            </Array>
          </mxGeometry>
        </mxCell>
        <mxCell id="shifs2Kozp3Mtdg8H0QK-212" value="" style="endArrow=none;html=1;rounded=0;align=center;verticalAlign=top;endFill=0;labelBackgroundColor=none;endSize=2;exitX=0.5;exitY=0;exitDx=0;exitDy=0;" parent="1CH3ANIibo0f4xU5voni-4" source="shifs2Kozp3Mtdg8H0QK-130" target="shifs2Kozp3Mtdg8H0QK-213" edge="1">
          <mxGeometry relative="1" as="geometry">
            <mxPoint x="334" y="26" as="sourcePoint" />
          </mxGeometry>
        </mxCell>
        <mxCell id="shifs2Kozp3Mtdg8H0QK-213" value="" style="ellipse;html=1;fontSize=11;align=center;fillColor=none;points=[];aspect=fixed;resizable=0;verticalAlign=bottom;labelPosition=center;verticalLabelPosition=top;flipH=1;" parent="1CH3ANIibo0f4xU5voni-4" vertex="1">
          <mxGeometry x="66" y="261" width="8" height="8" as="geometry" />
        </mxCell>
        <mxCell id="shifs2Kozp3Mtdg8H0QK-29" value="" style="fontStyle=1;align=center;verticalAlign=top;childLayout=stackLayout;horizontal=1;horizontalStack=0;resizeParent=1;resizeParentMax=0;resizeLast=0;marginBottom=0;" parent="1CH3ANIibo0f4xU5voni-4" vertex="1">
          <mxGeometry y="191" width="140" height="40" as="geometry" />
        </mxCell>
        <mxCell id="shifs2Kozp3Mtdg8H0QK-30" value="&amp;lt;&amp;lt;component&amp;gt;&amp;gt;&lt;div&gt;Modulemanagement&lt;/div&gt;" style="html=1;align=left;spacingLeft=4;verticalAlign=top;strokeColor=none;fillColor=none;whiteSpace=wrap;" parent="shifs2Kozp3Mtdg8H0QK-29" vertex="1">
          <mxGeometry width="140" height="40" as="geometry" />
        </mxCell>
        <mxCell id="shifs2Kozp3Mtdg8H0QK-31" value="" style="shape=module;jettyWidth=10;jettyHeight=4;" parent="shifs2Kozp3Mtdg8H0QK-30" vertex="1">
          <mxGeometry x="1" width="16" height="20" relative="1" as="geometry">
            <mxPoint x="-25" y="9" as="offset" />
          </mxGeometry>
        </mxCell>
        <mxCell id="shifs2Kozp3Mtdg8H0QK-62" value="" style="fontStyle=1;align=center;verticalAlign=top;childLayout=stackLayout;horizontal=1;horizontalStack=0;resizeParent=1;resizeParentMax=0;resizeLast=0;marginBottom=0;" parent="1CH3ANIibo0f4xU5voni-4" vertex="1">
          <mxGeometry width="170" height="40" as="geometry" />
        </mxCell>
        <mxCell id="shifs2Kozp3Mtdg8H0QK-63" value="&amp;lt;&amp;lt;component&amp;gt;&amp;gt;&lt;div&gt;ModulemanagementGui&lt;/div&gt;" style="html=1;align=left;spacingLeft=4;verticalAlign=top;strokeColor=none;fillColor=none;whiteSpace=wrap;" parent="shifs2Kozp3Mtdg8H0QK-62" vertex="1">
          <mxGeometry width="170" height="40" as="geometry" />
        </mxCell>
        <mxCell id="shifs2Kozp3Mtdg8H0QK-64" value="" style="shape=module;jettyWidth=10;jettyHeight=4;" parent="shifs2Kozp3Mtdg8H0QK-63" vertex="1">
          <mxGeometry x="1" width="16" height="20" relative="1" as="geometry">
            <mxPoint x="-25" y="9" as="offset" />
          </mxGeometry>
        </mxCell>
        <mxCell id="shifs2Kozp3Mtdg8H0QK-47" value="" style="fontStyle=1;align=center;verticalAlign=top;childLayout=stackLayout;horizontal=1;horizontalStack=0;resizeParent=1;resizeParentMax=0;resizeLast=0;marginBottom=0;" parent="1CH3ANIibo0f4xU5voni-4" vertex="1">
          <mxGeometry y="60" width="220" height="40" as="geometry" />
        </mxCell>
        <mxCell id="shifs2Kozp3Mtdg8H0QK-48" value="&amp;lt;&amp;lt;component&amp;gt;&amp;gt;&lt;div&gt;ModulemanagementContactpoints&lt;/div&gt;" style="html=1;align=left;spacingLeft=4;verticalAlign=top;strokeColor=none;fillColor=none;whiteSpace=wrap;" parent="shifs2Kozp3Mtdg8H0QK-47" vertex="1">
          <mxGeometry width="220" height="40" as="geometry" />
        </mxCell>
        <mxCell id="shifs2Kozp3Mtdg8H0QK-49" value="" style="shape=module;jettyWidth=10;jettyHeight=4;" parent="shifs2Kozp3Mtdg8H0QK-48" vertex="1">
          <mxGeometry x="1" width="16" height="20" relative="1" as="geometry">
            <mxPoint x="-25" y="9" as="offset" />
          </mxGeometry>
        </mxCell>
        <mxCell id="shifs2Kozp3Mtdg8H0QK-129" value="" style="fontStyle=1;align=center;verticalAlign=top;childLayout=stackLayout;horizontal=1;horizontalStack=0;resizeParent=1;resizeParentMax=0;resizeLast=0;marginBottom=0;" parent="1CH3ANIibo0f4xU5voni-4" vertex="1">
          <mxGeometry y="281" width="140" height="40" as="geometry" />
        </mxCell>
        <mxCell id="shifs2Kozp3Mtdg8H0QK-130" value="&amp;lt;&amp;lt;component&amp;gt;&amp;gt;&lt;div&gt;ModulePersistence&lt;/div&gt;" style="html=1;align=left;spacingLeft=4;verticalAlign=top;strokeColor=none;fillColor=none;whiteSpace=wrap;" parent="shifs2Kozp3Mtdg8H0QK-129" vertex="1">
          <mxGeometry width="140" height="40" as="geometry" />
        </mxCell>
        <mxCell id="shifs2Kozp3Mtdg8H0QK-131" value="" style="shape=module;jettyWidth=10;jettyHeight=4;" parent="shifs2Kozp3Mtdg8H0QK-130" vertex="1">
          <mxGeometry x="1" width="16" height="20" relative="1" as="geometry">
            <mxPoint x="-25" y="9" as="offset" />
          </mxGeometry>
        </mxCell>
        <mxCell id="shifs2Kozp3Mtdg8H0QK-150" value="" style="shape=requiredInterface;html=1;fontSize=11;align=center;fillColor=none;points=[];aspect=fixed;resizable=0;verticalAlign=bottom;labelPosition=center;verticalLabelPosition=top;flipH=1;rotation=90;" parent="1CH3ANIibo0f4xU5voni-4" vertex="1">
          <mxGeometry x="67.5" y="142" width="5" height="10" as="geometry" />
        </mxCell>
        <mxCell id="shifs2Kozp3Mtdg8H0QK-149" value="" style="endArrow=none;html=1;rounded=0;align=center;verticalAlign=top;endFill=0;labelBackgroundColor=none;endSize=2;exitX=1;exitY=0.5;exitDx=0;exitDy=0;" parent="1CH3ANIibo0f4xU5voni-4" source="shifs2Kozp3Mtdg8H0QK-48" target="shifs2Kozp3Mtdg8H0QK-150" edge="1">
          <mxGeometry relative="1" as="geometry">
            <mxPoint x="315" y="-289" as="sourcePoint" />
            <Array as="points">
              <mxPoint x="250" y="81" />
              <mxPoint x="250" y="131" />
              <mxPoint x="70" y="131" />
            </Array>
          </mxGeometry>
        </mxCell>
        <mxCell id="shifs2Kozp3Mtdg8H0QK-211" value="" style="ellipse;html=1;fontSize=11;align=center;fillColor=none;points=[];aspect=fixed;resizable=0;verticalAlign=bottom;labelPosition=center;verticalLabelPosition=top;flipH=1;" parent="1CH3ANIibo0f4xU5voni-4" vertex="1">
          <mxGeometry x="66" y="151" width="8" height="8" as="geometry" />
        </mxCell>
        <mxCell id="shifs2Kozp3Mtdg8H0QK-210" value="" style="endArrow=none;html=1;rounded=0;align=center;verticalAlign=top;endFill=0;labelBackgroundColor=none;endSize=2;exitX=0.5;exitY=0;exitDx=0;exitDy=0;" parent="1CH3ANIibo0f4xU5voni-4" source="shifs2Kozp3Mtdg8H0QK-30" target="shifs2Kozp3Mtdg8H0QK-211" edge="1">
          <mxGeometry relative="1" as="geometry">
            <mxPoint x="324" y="16" as="sourcePoint" />
          </mxGeometry>
        </mxCell>
        <mxCell id="shifs2Kozp3Mtdg8H0QK-154" value="" style="shape=requiredInterface;html=1;fontSize=11;align=center;fillColor=none;points=[];aspect=fixed;resizable=0;verticalAlign=bottom;labelPosition=center;verticalLabelPosition=top;flipH=1;rotation=90;" parent="1CH3ANIibo0f4xU5voni-4" vertex="1">
          <mxGeometry x="67.5" y="251" width="5" height="10" as="geometry" />
        </mxCell>
        <mxCell id="shifs2Kozp3Mtdg8H0QK-153" value="" style="endArrow=none;html=1;rounded=0;align=center;verticalAlign=top;endFill=0;labelBackgroundColor=none;endSize=2;exitX=0.5;exitY=1;exitDx=0;exitDy=0;" parent="1CH3ANIibo0f4xU5voni-4" source="shifs2Kozp3Mtdg8H0QK-30" target="shifs2Kozp3Mtdg8H0QK-154" edge="1">
          <mxGeometry relative="1" as="geometry">
            <mxPoint x="335" y="-269" as="sourcePoint" />
          </mxGeometry>
        </mxCell>
      </root>
    </mxGraphModel>
  </diagram>
</mxfile>
